<svg width="1852" height="2029" viewBox="0 0 1852 2029" fill="none" xmlns="http://www.w3.org/2000/svg">
<g clip-path="url(#clip0)">
<path d="M139.169 144.874C65.662 202.304 106.892 375.609 74.0793 462.152C68.3918 477.12 63.3205 492.404 58.8653 508.005C39.8457 574.431 31.8934 646.157 34.9734 720.302C35.1667 724.835 35.398 729.371 35.6672 733.913C35.7735 735.631 35.8673 737.333 35.9737 739.051C36.4564 746.162 37.0286 753.289 37.6905 760.431C37.9045 762.683 38.1347 764.922 38.3648 767.161C38.548 769.076 38.7597 770.995 38.9713 772.914C41.2239 793.463 44.3107 814.125 48.2315 834.898C48.6609 837.161 49.1027 839.441 49.5445 841.72C49.9395 843.676 50.3186 845.644 50.7261 847.616C51.0043 848.993 51.295 850.387 51.5893 851.753C52.0561 854.064 52.5514 856.379 53.0627 858.682C54.376 864.68 55.757 870.677 57.2055 876.673C57.8635 879.427 58.5342 882.197 59.2491 884.958C59.246 884.989 59.2522 885.02 59.267 885.047C59.9535 887.804 60.6559 890.549 61.3869 893.297C62.0445 895.82 62.7146 898.359 63.4167 900.872C65.4713 908.479 67.6433 916.071 69.9327 923.649C70.3893 925.222 70.8743 926.798 71.3593 928.375C72.0305 930.553 72.6893 932.714 73.389 934.895C74.2748 937.677 75.1479 940.442 76.0497 943.212C76.8871 945.8 77.7406 948.375 78.6064 950.967L78.7996 951.51C79.6655 954.102 80.5474 956.681 81.4578 959.263C86.0582 972.6 91.0138 985.909 96.3248 999.188C96.9861 1000.86 97.6635 1002.52 98.3409 1004.17C98.6234 1004.93 98.9343 1005.69 99.2612 1006.44C100.049 1008.37 100.837 1010.3 101.654 1012.24C102.617 1014.63 103.625 1017 104.662 1019.38C107.497 1026.05 110.418 1032.68 113.423 1039.3C114.433 1041.55 115.446 1043.77 116.487 1045.99C116.494 1046.04 116.512 1046.09 116.542 1046.13C117.584 1048.35 118.625 1050.57 119.666 1052.8C121.118 1055.91 122.612 1059.04 124.153 1062.13C125.891 1065.74 127.673 1069.34 129.467 1072.95C130.594 1075.19 131.721 1077.42 132.864 1079.64C133.991 1081.87 135.146 1084.11 136.304 1086.32C142.1 1097.46 148.14 1108.54 154.423 1119.56C156.766 1123.65 159.126 1127.72 161.526 1131.82C162.995 1134.32 164.493 1136.83 166.006 1139.33C167.327 1141.52 168.659 1143.72 169.996 1145.89C171.317 1148.07 172.669 1150.23 174.018 1152.42L174.031 1152.44C174.149 1152.65 174.283 1152.86 174.416 1153.06C176.624 1156.61 178.876 1160.15 181.127 1163.7C182.446 1165.78 183.797 1167.84 185.16 1169.91C186.361 1171.78 187.59 1173.65 188.835 1175.51C192.511 1181.1 196.262 1186.66 200.091 1192.19C201.314 1193.98 202.554 1195.77 203.81 1197.54C206.449 1201.35 209.135 1205.11 211.85 1208.89C212.972 1210.45 214.106 1212.04 215.244 1213.59C218.296 1217.8 221.409 1221.98 224.537 1226.15C226.299 1228.5 228.077 1230.84 229.871 1233.17C231.987 1235.94 234.118 1238.71 236.265 1241.45C340.142 1374.41 505.108 1491.62 669.702 1565.74C710.982 1584.45 753.358 1600.64 796.599 1614.22C821.691 1622.05 846.37 1628.65 870.438 1633.88C1049.6 1673.02 1193.53 1638.1 1204.78 1485.73C1206.24 1466.07 1182.4 1405.01 1158.91 1378.51C976.594 1172.92 966.279 1121.45 966.279 1121.45C913.468 869.138 1197.84 745.372 1202.07 486.884C1209.2 51.1851 405.869 -63.4948 139.169 144.874Z" fill="url(#paint0_linear)"/>
<path d="M435.37 1003.55L478.083 1075.76L480.261 1079.44L537.113 1175.54L796.598 1614.22C821.691 1622.05 846.37 1628.65 870.438 1633.88L541.287 1157.02L484.362 1074.53L481.97 1071.08L435.37 1003.55Z" fill="#F2F2F2"/>
<path d="M74.0788 462.153C68.3913 477.12 63.32 492.405 58.8648 508.005L332.981 778.371L483.803 927.117L346.939 771.814L74.0788 462.153Z" fill="#F2F2F2"/>
<path d="M520.684 1471.2C598.823 1449.78 654.475 1407.99 686.096 1347.01C709.573 1301.73 719.577 1246.75 715.83 1183.59C712.995 1137.01 702.83 1091.17 685.709 1047.76C595.091 816.644 614.148 685.23 646.092 615.684C681.116 539.429 739.053 518.416 739.635 518.213L738.301 514.383C737.705 514.59 678.267 536.053 642.474 613.842C621.839 658.687 612.871 713.399 615.818 776.456C619.487 854.934 641.731 946.713 681.931 1049.24C698.896 1092.25 708.969 1137.68 711.781 1183.83C717.925 1287.42 689.574 1420.69 519.613 1467.29L520.684 1471.2Z" fill="#FAFAFA"/>
<path d="M734.007 1128.5C795.608 1111.61 805.889 1063.39 803.665 1025.91C802.659 1009.38 799.051 993.103 792.974 977.695C761.228 896.727 767.865 850.825 779.023 826.575C791.14 800.242 810.966 793.079 811.164 793.009L809.831 789.179C808.953 789.485 788.169 796.995 775.337 824.882C758.629 861.195 763.291 913.107 789.196 979.178C795.118 994.189 798.635 1010.04 799.615 1026.15C801.75 1062.13 791.914 1108.42 732.936 1124.59L734.007 1128.5Z" fill="#FAFAFA"/>
<path d="M594.162 647.131L596.927 644.161C552.193 602.517 564.983 556.958 583.59 526.074C591.944 512.256 602.424 499.84 614.645 489.285C668.291 442.752 696.54 398.922 698.609 359.014C700.197 328.366 685.274 312.085 684.639 311.408L681.676 314.181C681.82 314.337 696.105 330.036 694.549 358.97C693.116 385.593 677.631 429.281 611.987 486.221C599.445 497.056 588.689 509.8 580.115 523.983C560.733 556.153 547.437 603.633 594.162 647.131Z" fill="#FAFAFA"/>
<path d="M526.802 422.736C532.132 437.965 543.296 450.449 557.837 457.442C572.379 464.434 589.107 465.363 604.343 460.023C619.578 454.684 632.072 443.513 639.077 428.969C646.081 414.425 647.022 397.699 641.692 382.47C630.593 350.758 548.075 299.247 548.075 299.247C548.075 299.247 515.704 391.024 526.802 422.736Z" fill="url(#paint1_linear)"/>
<path d="M593.599 244.874C598.929 260.103 610.092 272.587 624.634 279.579C639.176 286.572 655.904 287.501 671.14 282.161C686.375 276.822 698.869 265.651 705.873 251.107C712.878 236.563 713.819 219.837 708.489 204.608C697.39 172.895 614.872 121.384 614.872 121.384C614.872 121.384 582.501 213.161 593.599 244.874Z" fill="url(#paint2_linear)"/>
<path d="M459.794 800.071C463.795 800.113 558.113 801.282 584.367 822.749C595.417 831.784 603.059 844.312 606.038 858.273C609.016 872.234 607.153 886.796 600.755 899.565C594.357 912.333 583.805 922.547 570.834 928.527C557.863 934.508 543.246 935.898 529.387 932.469C524.947 931.382 520.641 929.807 516.549 927.771C512.321 925.671 508.343 923.104 504.69 920.116C478.441 898.63 458.621 806.446 457.791 802.524L457.251 800.052L459.794 800.071ZM507.262 916.967C519.334 926.84 534.837 931.512 550.362 929.954C565.887 928.396 580.161 920.736 590.045 908.66C599.928 896.583 604.612 881.079 603.065 865.558C601.517 850.037 593.866 835.771 581.795 825.898C575.677 820.886 565.385 817.042 553.291 814.072C520.2 805.945 473.655 804.436 462.313 804.178C465.71 819.3 484.417 898.28 507.262 916.967Z" fill="#FAFAFA"/>
<path d="M810.692 531.372C825.898 535.133 841.966 533.058 855.726 525.557C885.541 509.337 922.274 422.445 923.824 418.754L924.803 416.42L922.312 415.973C918.373 415.268 825.489 398.888 795.673 415.108C784.523 421.167 775.464 430.458 769.69 441.757C763.915 453.056 761.694 465.836 763.319 478.415C764.944 490.995 770.339 502.786 778.794 512.238C787.249 521.69 798.369 528.36 810.692 531.372L810.692 531.372ZM919.072 419.537C912.898 433.748 879.727 507.884 853.788 521.995C840.08 529.445 823.977 531.148 809.02 526.731C794.064 522.314 781.479 512.138 774.031 498.441C766.584 484.743 764.884 468.645 769.306 453.686C773.727 438.727 783.909 426.132 797.611 418.67C823.548 404.561 903.79 416.997 919.072 419.537Z" fill="#FAFAFA"/>
<path d="M858.108 693.097C843.935 700.817 833.405 713.847 828.832 729.32C824.259 744.794 826.018 761.446 833.721 775.615C841.425 789.784 854.443 800.31 869.914 804.88C885.385 809.45 902.042 807.689 916.223 799.984C945.756 783.918 983.418 694.178 983.418 694.178C983.418 694.178 887.641 677.031 858.108 693.097Z" fill="url(#paint3_linear)"/>
<path d="M676.467 650.788C679.951 643.674 685.757 637.959 692.927 634.588C700.096 631.218 708.199 630.393 715.897 632.251C718.319 632.855 720.671 633.713 722.912 634.809C739.58 642.955 761.431 688.993 762.353 690.932L763.439 693.225L760.961 693.786C759.014 694.227 716.713 703.641 696.977 698.793C695.398 698.426 693.863 697.888 692.4 697.189C684.135 693.149 677.815 685.993 674.827 677.292C671.84 668.592 672.429 659.059 676.467 650.788L676.467 650.788ZM678.659 675.975C679.951 679.791 681.989 683.311 684.656 686.33C687.323 689.348 690.566 691.805 694.194 693.556C707.579 700.102 747.175 692.51 757.564 690.362C752.887 680.857 734.525 644.993 721.119 638.442C715.671 635.783 709.555 634.799 703.544 635.616C697.534 636.433 691.9 639.014 687.355 643.032C682.81 647.05 679.558 652.324 678.01 658.188C676.462 664.052 676.688 670.242 678.659 675.975Z" fill="#FAFAFA"/>
<path d="M339.295 1589.39C51.4472 1220.96 -174.957 916.869 -166.393 910.178C-157.83 903.487 82.4595 1196.73 370.307 1565.16C658.155 1933.59 884.56 2237.68 875.996 2244.38C867.432 2251.07 627.143 1957.82 339.295 1589.39Z" fill="#3F3D56"/>
<path d="M292.777 1625.74C93.4978 1370.67 -63.2437 1160.14 -57.3149 1155.51C-51.3861 1150.88 114.968 1353.9 314.247 1608.96C513.526 1864.03 670.268 2074.55 664.339 2079.19C658.41 2083.82 492.056 1880.8 292.777 1625.74Z" fill="#3F3D56"/>
<path d="M248.071 1660.32C85.5104 1452.25 -42.3506 1280.52 -37.5143 1276.74C-32.678 1272.96 103.024 1438.57 265.585 1646.64C428.146 1854.71 556.007 2026.44 551.171 2030.22C546.334 2034 410.632 1868.39 248.071 1660.32Z" fill="#3F3D56"/>
<path d="M836.539 823.935L1062.22 1205.39C1062.92 1188.66 1063.49 1171.31 1063.93 1153.36L836.539 823.935Z" fill="#F2F2F2"/>
</g>
<defs>
<linearGradient id="paint0_linear" x1="1235.99" y1="411.986" x2="-89.6862" y2="429.867" gradientUnits="userSpaceOnUse">
<stop stop-color="#CCE4F7"/>
<stop offset="1" stop-color="#AECFFF"/>
</linearGradient>
<linearGradient id="paint1_linear" x1="555.727" y1="309.323" x2="614.322" y2="464.916" gradientUnits="userSpaceOnUse">
<stop stop-color="#FFACAC" stop-opacity="0.35"/>
<stop offset="1" stop-color="#FFE8E8" stop-opacity="0"/>
</linearGradient>
<linearGradient id="paint2_linear" x1="672.289" y1="135.486" x2="705.865" y2="298.154" gradientUnits="userSpaceOnUse">
<stop stop-color="#FFACAC" stop-opacity="0.35"/>
<stop offset="1" stop-color="#FFE8E8" stop-opacity="0"/>
</linearGradient>
<linearGradient id="paint3_linear" x1="946.631" y1="676.187" x2="830.319" y2="780.415" gradientUnits="userSpaceOnUse">
<stop stop-color="#FFACAC" stop-opacity="0.35"/>
<stop offset="1" stop-color="#FFE8E8" stop-opacity="0"/>
</linearGradient>
<clipPath id="clip0">
<rect width="1885" height="1346" fill="white" transform="matrix(-0.615661 -0.788011 -0.788011 0.615661 1851.18 1199.4)"/>
</clipPath>
</defs>
</svg>
