<svg width="952" height="995" viewBox="0 0 952 995" fill="none" xmlns="http://www.w3.org/2000/svg">
<g clip-path="url(#clip0)">
<path d="M675.841 435.69C731.19 435.69 776.059 390.85 776.059 335.536C776.059 280.223 731.19 235.382 675.841 235.382C620.492 235.382 575.623 280.223 575.623 335.536C575.623 390.85 620.492 435.69 675.841 435.69Z" fill="#FF6584"/>
<path d="M950.743 410.21C950.964 410.17 951.13 410.016 951.388 410.055C951.275 409.621 951.128 409.197 950.949 408.787C950.63 409.222 950.304 409.665 950.02 410.053L950.743 410.21Z" fill="white"/>
<path d="M278.565 572.582C279.15 594.432 282.813 616.092 289.444 636.922C289.596 637.405 289.755 637.881 289.914 638.365H330.515C330.471 637.932 330.428 637.448 330.385 636.922C327.678 605.819 312.069 416.521 330.731 384.149C329.1 386.775 275.417 473.755 278.565 572.582Z" fill="#E6E6E6"/>
<path d="M281.613 636.922C281.952 637.405 282.306 637.889 282.667 638.365H313.125C312.894 637.954 312.627 637.47 312.317 636.922C307.285 627.846 292.391 600.711 278.566 572.582C263.709 542.352 250.079 510.975 251.227 499.62C250.873 502.181 240.593 580.258 281.613 636.922Z" fill="#E6E6E6"/>
<path d="M598.114 642.125C597.604 661.174 594.411 680.058 588.63 698.217C588.497 698.639 588.359 699.054 588.22 699.475H552.824C552.861 699.098 552.899 698.677 552.937 698.217C555.297 671.102 568.904 506.069 552.635 477.846C554.057 480.136 600.859 555.966 598.114 642.125Z" fill="#E6E6E6"/>
<path d="M595.459 698.218C595.163 698.639 594.855 699.06 594.54 699.476H567.986C568.188 699.117 568.421 698.696 568.691 698.218C573.078 690.305 586.062 666.649 598.115 642.125C611.068 615.77 622.951 588.416 621.95 578.515C622.258 580.748 631.221 648.817 595.459 698.218Z" fill="#E6E6E6"/>
<path d="M193.395 81.2931L209.902 68.0991C197.078 66.6852 191.809 73.6744 189.653 79.2064C179.635 75.0491 168.729 80.4975 168.729 80.4975L201.756 92.4799C200.09 88.0324 197.189 84.1518 193.395 81.2931Z" fill="#3F3D56"/>
<path d="M690.572 13.3788L707.079 0.184776C694.256 -1.22911 688.987 5.76011 686.831 11.2921C676.812 7.13483 665.906 12.5832 665.906 12.5832L698.934 24.5656C697.267 20.1181 694.367 16.2375 690.572 13.3788Z" fill="#3F3D56"/>
<path d="M933.443 535.139C933.443 546.071 933.062 556.914 932.3 567.668C926.42 652.508 896.984 734.029 847.298 803.071C840.805 812.128 833.988 820.93 826.845 829.478C808.339 851.659 787.791 872.057 765.472 890.403L667.64 833.033L609.146 696.598C609.146 696.598 696.421 520.003 933.288 523.205C933.387 527.169 933.439 531.147 933.443 535.139Z" fill="#3F3D56"/>
<path d="M932.299 567.667C927.799 631.066 910.198 692.844 880.607 749.103C851.016 805.362 810.078 854.881 760.376 894.536L669.489 841.243L617.615 720.24C617.615 720.24 701.671 550.162 932.299 567.667Z" fill="#6C63FF"/>
<path d="M932.299 567.667C927.799 631.066 910.198 692.844 880.607 749.103C851.016 805.362 810.078 854.881 760.376 894.536L669.489 841.243L617.615 720.24C617.615 720.24 701.671 550.162 932.299 567.667Z" fill="url(#paint0_linear)"/>
<path d="M847.298 803.072C840.805 812.128 833.987 820.93 826.845 829.478C778.986 886.943 717.834 931.884 648.683 960.412C634.681 966.181 620.349 971.269 605.688 975.675C499.825 1003.81 387.671 996.693 286.219 955.404C185.883 910.65 104.802 831.611 57.5382 732.484C51.1864 719.14 45.4744 705.457 40.4023 691.435C128.862 626.674 303.171 533.94 493.147 624.05C545.698 648.976 592.622 671.696 633.918 692.211C738.71 744.122 808.453 781.545 847.298 803.072Z" fill="#3F3D56"/>
<path d="M826.846 829.478C777.374 888.731 713.786 934.598 641.931 962.861C570.077 991.124 492.264 1000.87 415.652 991.215C339.04 981.556 266.089 952.797 203.51 907.585C140.931 862.373 90.735 802.159 57.5391 732.484C131.418 674.099 301.817 569.177 488.815 657.862C536.905 680.672 579.839 701.465 617.616 720.24C727.743 774.789 795.581 811.86 826.846 829.478Z" fill="url(#paint1_linear)"/>
<path d="M696.448 937.405C680.977 945.976 665.029 953.657 648.682 960.412C593.051 983.322 533.455 995.075 473.286 995C402.089 994.972 331.867 978.449 268.136 946.729C204.405 915.008 148.9 868.955 105.98 812.184C215.881 800.603 519.669 784.987 696.448 937.405Z" fill="#3F3D56"/>
<path d="M648.682 960.412C562.42 995.859 467.423 1004.3 376.255 984.626C285.087 964.949 202.043 918.079 138.107 850.214C178.082 844.346 491.919 804.045 648.682 960.412Z" fill="#6C63FF"/>
<path d="M648.682 960.412C562.42 995.859 467.423 1004.3 376.255 984.626C285.087 964.949 202.043 918.079 138.107 850.214C178.082 844.346 491.919 804.045 648.682 960.412Z" fill="url(#paint2_linear)"/>
<path d="M856.26 280.127V280.141C527.686 37.3599 151.234 208.242 148.326 209.554V209.54C190.995 166.903 241.661 133.098 297.423 110.059C353.185 87.0198 412.947 75.2004 473.286 75.2774C633.028 75.2773 773.757 156.628 856.26 280.127Z" fill="#E6E6E6"/>
<path d="M441.949 508.162C503.066 508.162 552.611 407.135 552.611 282.512C552.611 157.889 503.066 56.8616 441.949 56.8616C380.832 56.8616 331.287 157.889 331.287 282.512C331.287 407.135 380.832 508.162 441.949 508.162Z" fill="#3F3D56"/>
<path d="M431.731 651.865C476.052 386.117 432.177 121.328 431.729 118.687L423.108 120.146C423.554 122.775 467.177 386.172 423.105 650.431L431.731 651.865Z" fill="#6C63FF"/>
<path d="M431.731 651.865C476.052 386.117 432.177 121.328 431.729 118.687L423.108 120.146C423.554 122.775 467.177 386.172 423.105 650.431L431.731 651.865Z" fill="url(#paint3_linear)"/>
<path d="M344.521 233.99L340.396 241.697L440.465 295.188L444.59 287.481L344.521 233.99Z" fill="#6C63FF"/>
<path d="M344.521 233.99L340.396 241.697L440.465 295.188L444.59 287.481L344.521 233.99Z" fill="url(#paint4_linear)"/>
<path d="M546.078 260.785L446.021 314.306L450.149 322.012L550.205 268.491L546.078 260.785Z" fill="#6C63FF"/>
<path d="M546.078 260.785L446.021 314.306L450.149 322.012L550.205 268.491L546.078 260.785Z" fill="url(#paint5_linear)"/>
<path d="M922.631 435.577C882.029 412.797 839.609 393.414 795.806 377.629C553.603 290.044 313.433 323.8 219.426 449.147C292.585 295.588 553.632 247.302 817.063 342.561C847.724 353.639 877.729 366.449 906.935 380.93C913.298 398.802 918.54 417.053 922.631 435.577Z" fill="#E6E6E6"/>
<path d="M595.52 188.469L612.027 175.275C599.203 173.862 593.934 180.851 591.778 186.383C581.76 182.226 570.854 187.674 570.854 187.674L603.881 199.656C602.215 195.209 599.314 191.328 595.52 188.469Z" fill="#3F3D56"/>
</g>
<path d="M174.618 544.392C230.179 534.373 258.65 434.337 238.21 320.955C217.771 207.572 156.161 123.779 100.601 133.798C45.0404 143.817 16.5694 243.854 37.0089 357.236C57.4484 470.619 119.058 554.411 174.618 544.392Z" fill="#E6E6E6"/>
<path d="M188.896 676.809C185.602 427.765 102.289 194.052 101.448 191.722L93.8496 194.463C94.6864 196.782 177.543 429.27 180.82 676.918L188.896 676.809Z" fill="#6C63FF"/>
<path d="M188.896 676.809C185.602 427.765 102.289 194.052 101.448 191.722L93.8496 194.463C94.6864 196.782 177.543 429.27 180.82 676.918L188.896 676.809Z" fill="url(#paint6_linear)"/>
<path d="M41.0816 310.921L38.5957 318.609L138.339 350.871L140.825 343.183L41.0816 310.921Z" fill="#6C63FF"/>
<path d="M41.0816 310.921L38.5957 318.609L138.339 350.871L140.825 343.183L41.0816 310.921Z" fill="url(#paint7_linear)"/>
<path d="M228.707 302.261L146.525 367.357L151.541 373.691L233.723 308.595L228.707 302.261Z" fill="#6C63FF"/>
<path d="M228.707 302.261L146.525 367.357L151.541 373.691L233.723 308.595L228.707 302.261Z" fill="url(#paint8_linear)"/>
<defs>
<linearGradient id="paint0_linear" x1="774.957" y1="566.403" x2="984.71" y2="760.458" gradientUnits="userSpaceOnUse">
<stop stop-color="#CCE4F7"/>
<stop offset="1" stop-color="#AECFFF"/>
</linearGradient>
<linearGradient id="paint1_linear" x1="442.192" y1="623.626" x2="632.638" y2="1004.38" gradientUnits="userSpaceOnUse">
<stop stop-color="#CCE4F7"/>
<stop offset="1" stop-color="#AECFFF"/>
</linearGradient>
<linearGradient id="paint2_linear" x1="393.395" y1="841.264" x2="449.465" y2="1020.9" gradientUnits="userSpaceOnUse">
<stop stop-color="#CCE4F7"/>
<stop offset="1" stop-color="#AECFFF"/>
</linearGradient>
<linearGradient id="paint3_linear" x1="437.317" y1="118.687" x2="472.386" y2="120.49" gradientUnits="userSpaceOnUse">
<stop stop-color="#CCE4F7"/>
<stop offset="1" stop-color="#AECFFF"/>
</linearGradient>
<linearGradient id="paint4_linear" x1="342.459" y1="237.844" x2="348.234" y2="228.736" gradientUnits="userSpaceOnUse">
<stop stop-color="#CCE4F7"/>
<stop offset="1" stop-color="#AECFFF"/>
</linearGradient>
<linearGradient id="paint5_linear" x1="496.05" y1="287.546" x2="502.088" y2="296.948" gradientUnits="userSpaceOnUse">
<stop stop-color="#CCE4F7"/>
<stop offset="1" stop-color="#AECFFF"/>
</linearGradient>
<linearGradient id="paint6_linear" x1="141.373" y1="191.722" x2="254.898" y2="213.176" gradientUnits="userSpaceOnUse">
<stop stop-color="#CCE4F7"/>
<stop offset="1" stop-color="#AECFFF"/>
</linearGradient>
<linearGradient id="paint7_linear" x1="39.8386" y1="314.765" x2="43.601" y2="305.535" gradientUnits="userSpaceOnUse">
<stop stop-color="#CCE4F7"/>
<stop offset="1" stop-color="#AECFFF"/>
</linearGradient>
<linearGradient id="paint8_linear" x1="187.616" y1="334.809" x2="194.653" y2="342.368" gradientUnits="userSpaceOnUse">
<stop stop-color="#CCE4F7"/>
<stop offset="1" stop-color="#AECFFF"/>
</linearGradient>
<clipPath id="clip0">
<rect width="921" height="995" fill="white" transform="translate(30.3887)"/>
</clipPath>
</defs>
</svg>
