<svg width="1920" height="1523" viewBox="0 0 1920 1523" fill="none" xmlns="http://www.w3.org/2000/svg">
<path d="M461.562 501.225C448.435 553.487 400.898 586.549 400.898 586.549C400.898 586.549 374.644 534.878 387.771 482.616C400.898 430.354 448.436 397.292 448.436 397.292C448.436 397.292 474.689 448.963 461.562 501.225Z" fill="#DADADA"/>
<path d="M357.339 775.166C384.942 821.423 374.665 878.479 374.665 878.479C374.665 878.479 319.634 860.539 292.03 814.282C264.427 768.026 274.704 710.969 274.704 710.969C274.704 710.969 329.735 728.909 357.339 775.166Z" fill="#3F3D56"/>
<path d="M318.802 170.661C346.405 216.917 336.128 273.974 336.128 273.974C336.128 273.974 281.097 256.034 253.493 209.777C225.89 163.52 236.167 106.464 236.167 106.464C236.167 106.464 291.198 124.404 318.802 170.661Z" fill="#3F3D56"/>
<path d="M361.938 890.26L372.917 877.129L373.675 880.138L372.905 877.132C373.119 877.077 394.529 871.199 410.154 841.519C430.707 802.471 442.495 720.551 381.935 552.02C326.172 396.842 330.267 276.209 343.525 202.336C357.922 122.088 385.167 79.2585 386.318 77.4745L391.52 80.8469C391.244 81.2761 363.694 124.663 349.552 203.806C336.499 276.872 332.532 396.224 387.76 549.916C449.224 720.953 436.742 804.662 415.445 844.768C398.463 876.749 362.911 890.016 361.938 890.26Z" fill="#3F3D56"/>
<path d="M390.286 156.726C433.043 155.972 467.092 120.634 466.337 77.7969C465.581 34.9596 430.308 0.844428 387.551 1.5985C344.794 2.35257 310.745 37.6904 311.5 80.5276C312.256 123.365 347.529 157.48 390.286 156.726Z" fill="url(#paint0_linear)"/>
<path d="M611.86 573.464C602.515 608.063 570.509 629.49 570.509 629.49C570.509 629.49 553.653 594.823 562.998 560.224C572.342 525.626 604.348 504.198 604.348 504.198C604.348 504.198 621.204 538.866 611.86 573.464Z" fill="#E6E6E6"/>
<path d="M539.326 754.405C557.143 785.488 549.638 823.308 549.638 823.308C549.638 823.308 513.246 810.733 495.428 779.65C477.611 748.567 485.116 710.747 485.116 710.747C485.116 710.747 521.508 723.322 539.326 754.405Z" fill="#E6E6E6"/>
<path d="M520.783 351.975C538.6 383.058 531.095 420.879 531.095 420.879C531.095 420.879 494.703 408.304 476.885 377.22C459.068 346.137 466.573 308.317 466.573 308.317C466.573 308.317 502.965 320.892 520.783 351.975Z" fill="#E6E6E6"/>
<path d="M549.43 826.408L548.492 822.389L548.961 824.399L548.484 822.391C548.628 822.357 562.938 818.699 573.677 799.146C587.806 773.422 596.607 719.085 558.302 606.307C523.032 502.465 527.172 422.296 536.855 373.328C547.374 320.135 565.997 291.974 566.785 290.801L570.204 293.104C570.015 293.387 551.182 321.914 540.849 374.376C531.31 422.81 527.271 502.129 562.203 604.977C601.077 719.432 591.793 774.95 577.158 801.369C565.489 822.436 550.081 826.257 549.43 826.408Z" fill="#E6E6E6"/>
<path d="M568.495 343.547C596.943 343.547 620.004 320.448 620.004 291.954C620.004 263.46 596.943 240.36 568.495 240.36C540.048 240.36 516.986 263.46 516.986 291.954C516.986 320.448 540.048 343.547 568.495 343.547Z" fill="#E6E6E6"/>
<path d="M1402.88 1135.19C1415.35 1181.4 1458.1 1210.02 1458.1 1210.02C1458.1 1210.02 1480.61 1163.72 1468.13 1117.51C1455.65 1071.31 1412.91 1042.69 1412.91 1042.69C1412.91 1042.69 1390.4 1088.99 1402.88 1135.19Z" fill="#E6E6E6"/>
<path d="M1499.74 1376.84C1475.95 1418.35 1485.97 1468.86 1485.97 1468.86C1485.97 1468.86 1534.57 1452.06 1558.37 1410.55C1582.16 1369.04 1572.14 1318.53 1572.14 1318.53C1572.14 1318.53 1523.54 1335.33 1499.74 1376.84Z" fill="#E6E6E6"/>
<path d="M1524.51 839.398C1500.71 880.909 1510.74 931.418 1510.74 931.418C1510.74 931.418 1559.34 914.624 1583.13 873.113C1606.93 831.602 1596.9 781.093 1596.9 781.093C1596.9 781.093 1548.3 797.887 1524.51 839.398Z" fill="#E6E6E6"/>
<path d="M1486.25 1473L1487.5 1467.63L1486.88 1470.31L1487.51 1467.63C1487.32 1467.59 1468.21 1462.7 1453.87 1436.59C1435 1402.23 1423.24 1329.67 1474.4 1179.05C1521.5 1040.38 1515.97 933.311 1503.04 867.915C1488.99 796.876 1464.12 759.268 1463.07 757.701L1458.5 760.778C1458.76 761.154 1483.91 799.252 1497.71 869.315C1510.45 933.997 1515.84 1039.93 1469.19 1177.28C1417.27 1330.13 1429.67 1404.27 1449.22 1439.56C1464.8 1467.69 1485.38 1472.79 1486.25 1473Z" fill="#E6E6E6"/>
<path d="M1460.79 828.143C1422.8 828.143 1392 797.295 1392 759.241C1392 721.187 1422.8 690.338 1460.79 690.338C1498.78 690.338 1529.58 721.187 1529.58 759.241C1529.58 797.295 1498.78 828.143 1460.79 828.143Z" fill="#E6E6E6"/>
<path d="M1236.99 1331.61C1236.99 1331.61 1237.61 1318.58 1250.35 1320.09L1236.99 1331.61Z" fill="#3F3D56"/>
<path d="M1233.38 1319.21C1236.91 1319.21 1239.76 1316.35 1239.76 1312.83C1239.76 1309.3 1236.91 1306.45 1233.38 1306.45C1229.86 1306.45 1227.01 1309.3 1227.01 1312.83C1227.01 1316.35 1229.86 1319.21 1233.38 1319.21Z" fill="#CDCAFF"/>
<path d="M1234.15 1323.57H1232.35V1334.82L1234.15 1336.63V1323.57Z" fill="#3F3D56"/>
<path d="M1577.98 1477.62C1577.98 1477.62 1578.61 1464.59 1591.35 1466.1L1577.98 1477.62Z" fill="#3F3D56"/>
<path d="M1574.38 1465.22C1577.91 1465.22 1580.76 1462.36 1580.76 1458.84C1580.76 1455.32 1577.91 1452.46 1574.38 1452.46C1570.86 1452.46 1568.01 1455.32 1568.01 1458.84C1568.01 1462.36 1570.86 1465.22 1574.38 1465.22Z" fill="#CDCAFF"/>
<path d="M1575.15 1469.58H1573.35V1482.19H1575.15V1469.58Z" fill="#3F3D56"/>
<path d="M1283.99 1376.61C1283.99 1376.61 1284.61 1363.58 1297.35 1365.09L1283.99 1376.61Z" fill="#3F3D56"/>
<path d="M1280.38 1364.21C1283.91 1364.21 1286.76 1361.36 1286.76 1357.83C1286.76 1354.31 1283.91 1351.45 1280.38 1351.45C1276.86 1351.45 1274.01 1354.31 1274.01 1357.83C1274.01 1361.36 1276.86 1364.21 1280.38 1364.21Z" fill="#CDCAFF"/>
<path d="M1281.15 1368.57H1279.35V1381.18H1281.15V1368.57Z" fill="#3F3D56"/>
<path d="M1384.98 1437.61C1384.98 1437.61 1385.61 1424.59 1398.35 1426.1L1384.98 1437.61Z" fill="#3F3D56"/>
<path d="M1381.38 1425.22C1384.91 1425.22 1387.76 1422.36 1387.76 1418.84C1387.76 1415.31 1384.91 1412.46 1381.38 1412.46C1377.86 1412.46 1375.01 1415.31 1375.01 1418.84C1375.01 1422.36 1377.86 1425.22 1381.38 1425.22Z" fill="#CDCAFF"/>
<path d="M1382.15 1429.58H1380.35V1442.18H1382.15V1429.58Z" fill="#3F3D56"/>
<path d="M1789.01 1489.1C1789.01 1489.1 1789.63 1476.07 1802.37 1477.59L1789.01 1489.1Z" fill="#3F3D56"/>
<path d="M1647.01 1488.1C1647.01 1488.1 1647.63 1475.07 1660.37 1476.58L1647.01 1488.1Z" fill="#3F3D56"/>
<path d="M1339.01 1421.09C1339.01 1421.09 1339.63 1408.07 1352.37 1409.58L1339.01 1421.09Z" fill="#3F3D56"/>
<path d="M1891.01 1510.1C1891.01 1510.1 1891.63 1497.07 1904.37 1498.59L1891.01 1510.1Z" fill="#3F3D56"/>
<path d="M1846.36 1497.1C1846.36 1497.1 1846.98 1484.07 1859.72 1485.59L1846.36 1497.1Z" fill="#3F3D56"/>
<path d="M1733.37 1489.1C1733.37 1489.1 1732.75 1476.07 1720.01 1477.59L1733.37 1489.1Z" fill="#3F3D56"/>
<path d="M1498 1473.1C1498 1473.1 1498.63 1460.07 1511.37 1461.58L1498 1473.1Z" fill="#3F3D56"/>
<path d="M1450.37 1461.1C1450.37 1461.1 1449.75 1448.07 1437.01 1449.58L1450.37 1461.1Z" fill="#3F3D56"/>
<path d="M1325.36 1412.32C1325.36 1412.32 1329.76 1400.04 1317.41 1396.57L1325.36 1412.32Z" fill="#3F3D56"/>
<path d="M1848.37 1498C1848.37 1498 1847.75 1484.97 1835.01 1486.49L1848.37 1498Z" fill="#3F3D56"/>
<path d="M1770.98 1489.12C1833.03 1488.34 1886.82 1501.62 1927 1522.47H-0.000495493V1429.59C-0.000495493 1086.4 489.146 620.298 917.207 897.997C1171.16 1062.75 1075.87 1247.35 1326.49 1412.86C1326.49 1412.86 1424.22 1493.5 1770.98 1489.12Z" fill="url(#paint1_linear)"/>
<defs>
<linearGradient id="paint0_linear" x1="387.551" y1="1.5985" x2="488.63" y2="95.5485" gradientUnits="userSpaceOnUse">
<stop stop-color="#CCE4F7"/>
<stop offset="1" stop-color="#AECFFF"/>
</linearGradient>
<linearGradient id="paint1_linear" x1="373.958" y1="1140.59" x2="268.623" y2="685.458" gradientUnits="userSpaceOnUse">
<stop stop-color="#D9EBFA"/>
<stop offset="1" stop-color="#AECFFF"/>
</linearGradient>
</defs>
</svg>
