<svg width="992" height="1106" viewBox="0 0 992 1106" fill="none" xmlns="http://www.w3.org/2000/svg">
<path d="M900.77 959.786C835.479 974.864 778.594 966.285 731.697 934.29C696.877 910.534 668.071 874.421 646.078 826.953C629.909 791.914 619.369 754.538 614.846 716.203C590.375 512.304 525.059 424.082 474.574 385.977C419.219 344.195 368.802 351.641 368.299 351.722L367.771 348.409C368.287 348.326 419.973 340.618 476.487 383.215C509.068 407.772 537.014 444.095 559.55 491.176C587.596 549.769 607.321 625.344 618.178 715.8C622.659 753.785 633.102 790.819 649.122 825.539C685.193 903.392 758.002 989.312 900.019 956.518L900.77 959.786Z" fill="#D0CDE1" fill-opacity="0.25"/>
<path d="M611.275 793.966C559.803 805.854 533.442 774.773 520.392 746.606C514.652 734.168 510.91 720.901 509.305 707.294C500.732 635.862 477.931 605.038 460.314 591.759C441.182 577.339 423.94 579.907 423.768 579.934L423.24 576.622C423.999 576.499 442.075 573.808 462.335 589.079C488.717 608.964 505.64 648.601 512.637 706.89C514.2 720.148 517.844 733.074 523.436 745.192C535.965 772.233 561.244 802.079 610.524 790.698L611.275 793.966Z" fill="#D0CDE1"/>
<path d="M524.699 388.488L521.522 387.411C537.8 339.517 510.653 311.361 485.014 296.175C473.521 289.392 461.029 284.465 447.998 281.576C390.717 268.752 352.988 247.924 335.861 219.672C322.707 197.976 327.203 180.26 327.401 179.517L330.644 180.373C330.6 180.543 326.342 197.585 338.8 218.046C350.264 236.873 378.642 262.609 448.734 278.301C462.109 281.267 474.93 286.325 486.725 293.287C513.433 309.106 541.7 338.463 524.699 388.488Z" fill="#D0CDE1"/>
<path d="M485.922 198.618C488.002 211.801 484.758 225.277 476.906 236.079C469.053 246.882 457.234 254.127 444.049 256.22C430.864 258.314 417.392 255.085 406.599 247.243C395.805 239.401 388.573 227.589 386.493 214.406C382.163 186.952 422.094 117.036 422.094 117.036C422.094 117.036 481.592 171.165 485.922 198.618Z" fill="url(#paint0_linear)"/>
<path d="M367.659 95.3135C369.738 108.497 366.495 121.972 358.642 132.775C350.789 143.577 338.97 150.822 325.785 152.916C312.6 155.009 299.129 151.78 288.335 143.938C277.541 136.097 270.309 124.285 268.23 111.101C263.899 83.6482 303.831 13.7325 303.831 13.7325C303.831 13.7325 363.328 67.8604 367.659 95.3135Z" fill="url(#paint1_linear)"/>
<path d="M682.417 447.11C679.52 448.711 611.291 486.597 600.574 512.54C596.064 523.459 595.402 535.584 598.698 546.921C601.993 558.258 609.05 568.132 618.707 574.918C628.364 581.705 640.047 585 651.833 584.262C663.62 583.525 674.809 578.798 683.56 570.859C686.368 568.323 688.887 565.485 691.07 562.396C693.327 559.207 695.219 555.775 696.71 552.165C707.416 526.209 685.767 451.292 684.837 448.109L684.262 446.097L682.417 447.11ZM693.605 550.881C688.678 562.812 679.216 572.301 667.301 577.263C655.385 582.224 641.991 582.251 630.067 577.337C618.142 572.422 608.663 562.97 603.714 551.059C598.766 539.148 598.753 525.754 603.68 513.824C606.174 507.771 612.164 500.931 619.809 494.019C640.726 475.106 674.032 455.731 682.19 451.09C685.635 463.437 702.927 528.302 693.605 550.881Z" fill="#D0CDE1"/>
<path d="M321.703 389.206C312.101 397.916 299.588 402.714 286.631 402.655C258.569 402.549 197.807 353.691 195.234 351.612L193.607 350.296L195.247 348.993C197.839 346.933 259.07 298.532 287.132 298.637C297.624 298.672 307.857 301.881 316.485 307.842C325.114 313.804 331.733 322.239 335.474 332.038C339.214 341.838 339.901 352.543 337.443 362.746C334.985 372.95 329.498 382.174 321.703 389.206L321.703 389.206ZM199.001 350.316C209.06 358.242 262.235 399.208 286.648 399.3C299.547 399.342 311.941 394.26 321.104 385.17C330.267 376.081 335.449 363.728 335.511 350.828C335.573 337.928 330.51 325.537 321.435 316.379C312.359 307.221 300.015 302.046 287.115 301.992C262.704 301.902 209.136 342.466 199.001 350.316Z" fill="#D0CDE1"/>
<path d="M350.474 525.605C363.817 525.662 376.586 531.016 385.973 540.49C395.36 549.963 400.597 562.781 400.533 576.125C400.469 589.468 395.108 602.246 385.631 611.649C376.153 621.052 363.333 626.31 349.99 626.267C322.194 626.163 259.641 575.596 259.641 575.596C259.641 575.596 322.678 525.501 350.474 525.605Z" fill="url(#paint2_linear)"/>
<path d="M466.195 423.469C460.873 419.656 454.408 417.774 447.868 418.135C441.327 418.495 435.103 421.077 430.224 425.452C428.697 426.843 427.32 428.391 426.117 430.07C417.167 442.547 419.274 484.655 419.362 486.429L419.469 488.525L421.493 487.961C423.083 487.518 457.573 477.764 470.049 466.484C471.055 465.596 471.962 464.602 472.754 463.518C477.192 457.331 478.993 449.637 477.764 442.128C476.534 434.618 472.373 427.907 466.195 423.469L466.195 423.469ZM474.457 442.673C475.011 445.959 474.904 449.323 474.143 452.569C473.382 455.814 471.983 458.877 470.026 461.577C462.84 471.6 431.033 481.619 422.626 484.133C422.312 475.375 421.647 442.046 428.845 432.011C431.772 427.935 435.841 424.817 440.537 423.052C445.234 421.287 450.347 420.955 455.23 422.096C460.112 423.237 464.546 425.802 467.968 429.464C471.391 433.127 473.649 437.724 474.457 442.673Z" fill="#D0CDE1"/>
<defs>
<linearGradient id="paint0_linear" x1="420.466" y1="127.38" x2="438.894" y2="263.675" gradientUnits="userSpaceOnUse">
<stop stop-color="#FFACAC" stop-opacity="0.35"/>
<stop offset="1" stop-color="#FFE8E8" stop-opacity="0"/>
</linearGradient>
<linearGradient id="paint1_linear" x1="302.202" y1="24.0759" x2="320.63" y2="160.37" gradientUnits="userSpaceOnUse">
<stop stop-color="#FFACAC" stop-opacity="0.35"/>
<stop offset="1" stop-color="#FFE8E8" stop-opacity="0"/>
</linearGradient>
<linearGradient id="paint2_linear" x1="242.761" y1="564.826" x2="395.242" y2="541.246" gradientUnits="userSpaceOnUse">
<stop stop-color="#FFACAC" stop-opacity="0.35"/>
<stop offset="1" stop-color="#FFE8E8" stop-opacity="0"/>
</linearGradient>
</defs>
</svg>
