<svg width="998" height="451" viewBox="0 0 998 451" fill="none" xmlns="http://www.w3.org/2000/svg">
<g clip-path="url(#clip0)">
<path d="M902.277 181.635H872.113V286.078H902.277V181.635Z" fill="#F2F2F2"/>
<path d="M922.195 266.431L848.832 179.128L701.572 180.475L612.24 267.51L614.045 268.671H613.4V449.705H921.998V268.671L922.195 266.431Z" fill="#F2F2F2"/>
<path d="M848.911 179.314L757.26 286.796V449.704H922V266.349L848.911 179.314Z" fill="#E6E6E6"/>
<path d="M857.031 359.614H823.387V389.36H857.031V359.614Z" fill="#3F3D56"/>
<path d="M857.031 308.127H823.387V337.401H857.031V308.127Z" fill="#3F3D56"/>
<path d="M857.031 359.614H823.387V389.36H857.031V359.614Z" fill="white"/>
<path d="M857.031 308.127H823.387V337.401H857.031V308.127Z" fill="white"/>
<path d="M707.515 351.721H673.871V381.467H707.515V351.721Z" fill="white"/>
<path d="M707.515 300.234H673.871V329.508H707.515V300.234Z" fill="white"/>
<path d="M664.244 181.635H634.08V286.078H664.244V181.635Z" fill="#F2F2F2"/>
<path d="M684.164 266.431L610.801 179.128L463.54 180.475L374.209 267.51L376.014 268.671H375.369V449.705H683.967V268.671L684.164 266.431Z" fill="#F2F2F2"/>
<path d="M610.877 179.314L519.227 286.796V449.704H683.966V266.349L610.877 179.314Z" fill="#E6E6E6"/>
<path d="M618.998 359.614H585.354V389.36H618.998V359.614Z" fill="#3F3D56"/>
<path d="M618.998 308.127H585.354V337.401H618.998V308.127Z" fill="#3F3D56"/>
<path d="M618.998 359.614H585.354V389.36H618.998V359.614Z" fill="white"/>
<path d="M618.998 308.127H585.354V337.401H618.998V308.127Z" fill="white"/>
<path d="M469.482 351.721H435.838V381.467H469.482V351.721Z" fill="white"/>
<path d="M469.482 300.234H435.838V329.508H469.482V300.234Z" fill="white"/>
<path d="M420.513 91.499H380.207V231.06H420.513V91.499Z" fill="#F2F2F2"/>
<path d="M447.13 204.805L349.099 88.1494L152.323 89.9482L32.9551 206.249L35.3664 207.799H34.5053V449.704H446.866V207.799L447.13 204.805Z" fill="#F2F2F2"/>
<path d="M349.202 88.3975L226.734 232.02V449.704H446.867V204.698L349.202 88.3975Z" fill="#E6E6E6"/>
<path d="M360.054 329.322H315.098V369.07H360.054V329.322Z" fill="#3F3D56"/>
<path d="M360.054 260.522H315.098V299.64H360.054V260.522Z" fill="#3F3D56"/>
<path d="M360.054 329.322H315.098V369.07H360.054V329.322Z" fill="white"/>
<path d="M360.054 260.522H315.098V299.64H360.054V260.522Z" fill="white"/>
<path d="M160.263 318.775H115.307V358.523H160.263V318.775Z" fill="white"/>
<path d="M160.263 249.976H115.307V289.093H160.263V249.976Z" fill="white"/>
<path d="M151.892 412.022C167.966 412.022 180.996 385.428 180.996 352.622C180.996 319.817 167.966 293.223 151.892 293.223C135.819 293.223 122.789 319.817 122.789 352.622C122.789 385.428 135.819 412.022 151.892 412.022Z" fill="#3F3D56"/>
<path d="M154.582 449.85C142.925 379.895 154.464 310.192 154.582 309.497L156.85 309.881C156.732 310.573 145.26 379.909 156.85 449.472L154.582 449.85Z" fill="#AECFFF"/>
<path d="M177.517 339.849L151.199 353.93L152.284 355.959L178.601 341.878L177.517 339.849Z" fill="#AECFFF"/>
<path d="M124.509 346.903L123.424 348.931L149.738 363.02L150.823 360.991L124.509 346.903Z" fill="#AECFFF"/>
<path d="M81.9657 377.193C113.403 377.193 138.888 325.178 138.888 261.015C138.888 196.851 113.403 144.836 81.9657 144.836C50.5282 144.836 25.043 196.851 25.043 261.015C25.043 325.178 50.5282 377.193 81.9657 377.193Z" fill="#AECFFF"/>
<path d="M88.3069 451C65.5392 314.357 88.0773 178.211 88.3075 176.852L90.5748 177.236C90.3452 178.592 67.8733 314.371 90.5754 450.623L88.3069 451Z" fill="#3F3D56"/>
<path d="M132.602 237.002L81.127 264.542L82.2118 266.571L133.687 239.03L132.602 237.002Z" fill="#3F3D56"/>
<path d="M27.8862 250.798L26.8008 252.826L78.268 280.381L79.3534 278.353L27.8862 250.798Z" fill="#3F3D56"/>
<path d="M216.783 350.071C259.803 350.071 294.677 278.892 294.677 191.089C294.677 103.286 259.803 32.1079 216.783 32.1079C173.763 32.1079 138.889 103.286 138.889 191.089C138.889 278.892 173.763 350.071 216.783 350.071Z" fill="#AECFFF"/>
<path d="M225.879 451C194.735 264.083 225.564 77.8488 225.879 75.9897L228.147 76.3739C227.832 78.2296 197.069 264.098 228.147 450.622L225.879 451Z" fill="#3F3D56"/>
<path d="M286.273 158.603L215.834 196.291L216.919 198.319L287.358 160.632L286.273 158.603Z" fill="#3F3D56"/>
<path d="M142.579 177.482L141.494 179.511L211.923 217.217L213.009 215.188L142.579 177.482Z" fill="#3F3D56"/>
<path d="M871.15 412.022C887.224 412.022 900.254 385.428 900.254 352.622C900.254 319.817 887.224 293.223 871.15 293.223C855.077 293.223 842.047 319.817 842.047 352.622C842.047 385.428 855.077 412.022 871.15 412.022Z" fill="#3F3D56"/>
<path d="M868.464 449.85C880.12 379.895 868.581 310.192 868.463 309.497L866.196 309.881C866.313 310.573 877.786 379.909 866.195 449.472L868.464 449.85Z" fill="#AECFFF"/>
<path d="M845.528 339.849L844.443 341.878L870.761 355.959L871.846 353.93L845.528 339.849Z" fill="#AECFFF"/>
<path d="M898.535 346.903L872.221 360.992L873.306 363.02L899.62 348.931L898.535 346.903Z" fill="#AECFFF"/>
<path d="M941.077 377.193C972.515 377.193 998 325.178 998 261.015C998 196.851 972.515 144.836 941.077 144.836C909.639 144.836 884.154 196.851 884.154 261.015C884.154 325.178 909.639 377.193 941.077 377.193Z" fill="#AECFFF"/>
<path d="M934.737 451C957.505 314.357 934.967 178.211 934.737 176.852L932.469 177.236C932.699 178.592 955.171 314.371 932.469 450.623L934.737 451Z" fill="#3F3D56"/>
<path d="M890.442 237.002L889.357 239.03L940.832 266.571L941.917 264.543L890.442 237.002Z" fill="#3F3D56"/>
<path d="M995.157 250.798L943.689 278.353L944.775 280.381L996.242 252.826L995.157 250.798Z" fill="#3F3D56"/>
<path d="M589.686 101.509L598.893 94.1432C591.74 93.3539 588.801 97.2558 587.599 100.344C582.011 98.0232 575.928 101.065 575.928 101.065L594.349 107.755C593.42 105.272 591.802 103.105 589.686 101.509Z" fill="#3F3D56"/>
<path d="M364.654 36.4813L373.861 29.1154C366.709 28.326 363.77 32.228 362.567 35.3164C356.98 32.9954 350.896 36.0371 350.896 36.0371L369.318 42.7267C368.389 40.2437 366.771 38.0773 364.654 36.4813Z" fill="#3F3D56"/>
<path d="M731.707 7.46908L740.914 0.103156C733.762 -0.68618 730.823 3.21574 729.62 6.30416C724.032 3.98317 717.949 7.02492 717.949 7.02492L736.371 13.7145C735.441 11.2315 733.824 9.06505 731.707 7.46908Z" fill="#3F3D56"/>
<path d="M750.295 437.238C747.848 437.238 745.444 437.883 743.325 439.109C741.173 437.162 738.503 435.883 735.638 435.425C732.774 434.967 729.838 435.351 727.187 436.53C724.536 437.709 722.284 439.633 720.705 442.067C719.126 444.501 718.287 447.342 718.291 450.244H764.247C763.996 446.713 762.418 443.408 759.829 440.995C757.241 438.582 753.834 437.24 750.295 437.238Z" fill="#3F3D56"/>
<path d="M283.231 437.238C280.784 437.238 278.379 437.883 276.26 439.109C274.109 437.162 271.438 435.883 268.574 435.425C265.709 434.967 262.773 435.351 260.122 436.53C257.472 437.709 255.22 439.633 253.641 442.067C252.062 444.501 251.223 447.342 251.227 450.244H297.182C296.932 446.713 295.353 443.408 292.765 440.995C290.176 438.582 286.77 437.24 283.231 437.238Z" fill="#3F3D56"/>
<path d="M522.264 437.238C519.817 437.238 517.412 437.883 515.294 439.109C513.142 437.162 510.472 435.883 507.607 435.425C504.742 434.967 501.806 435.351 499.156 436.53C496.505 437.709 494.253 439.633 492.674 442.067C491.095 444.501 490.256 447.342 490.26 450.244H536.216C535.965 446.713 534.387 443.408 531.798 440.995C529.209 438.582 525.803 437.24 522.264 437.238Z" fill="#3F3D56"/>
<path d="M471.825 404.4H339.238V408.678H359.916V449.321H364.193V408.678H444.731V449.321H449.009V408.678H471.825V404.4Z" fill="#3F3D56"/>
<path d="M472.087 391.601H339.5V395.879H472.087V391.601Z" fill="#3F3D56"/>
<path d="M472.087 380.905H339.5V385.183H472.087V380.905Z" fill="#3F3D56"/>
<path d="M472.087 370.209H339.5V374.488H472.087V370.209Z" fill="#3F3D56"/>
<path d="M678.854 404.4H546.268V408.678H566.946V449.321H571.222V408.678H651.76V449.321H656.038V408.678H678.854V404.4Z" fill="#3F3D56"/>
<path d="M679.114 391.601H546.527V395.879H679.114V391.601Z" fill="#3F3D56"/>
<path d="M679.114 380.905H546.527V385.183H679.114V380.905Z" fill="#3F3D56"/>
<path d="M679.114 370.209H546.527V374.488H679.114V370.209Z" fill="#3F3D56"/>
</g>
<defs>
<clipPath id="clip0">
<rect width="998" height="451" fill="white"/>
</clipPath>
</defs>
</svg>
