<svg width="376" height="358" viewBox="0 0 376 358" fill="none" xmlns="http://www.w3.org/2000/svg">
<path d="M332.588 304.224L329.768 302.408C357.183 259.897 337.681 225.994 316.494 205.039C306.992 195.67 296.069 187.858 284.128 181.893C231.672 155.55 200.127 126.188 190.368 94.6245C182.874 70.3842 191.535 54.2889 191.907 53.6162L194.845 55.2338C194.761 55.3881 186.494 70.8873 193.614 93.76C200.166 114.806 221.449 146.661 285.638 178.895C297.893 185.018 309.103 193.036 318.856 202.653C340.925 224.481 361.223 259.821 332.588 304.224Z" fill="#D0CDE1" fill-opacity="0.35"/>
<path d="M341.054 110.62C339.872 123.914 333.455 136.199 323.215 144.773C312.975 153.346 299.751 157.506 286.452 156.337C273.153 155.168 260.868 148.766 252.3 138.539C243.733 128.312 239.584 115.098 240.766 101.804C243.228 74.1204 298.934 15.9863 298.934 15.9863C298.934 15.9863 343.516 82.9363 341.054 110.62Z" fill="url(#paint0_linear)" fill-opacity="0.85"/>
<path d="M251.398 -18.2988C250.215 -5.00479 243.798 7.28031 233.559 15.854C223.319 24.4276 210.095 28.5874 196.796 27.4184C183.497 26.2493 171.212 19.8471 162.644 9.6202C154.076 -0.606737 149.927 -13.8207 151.11 -27.1147C153.572 -54.798 209.278 -112.932 209.278 -112.932C209.278 -112.932 253.86 -45.9821 251.398 -18.2988Z" fill="url(#paint1_linear)" fill-opacity="0.85"/>
<path d="M135.488 255.653C124.06 261.772 110.756 263.39 98.201 260.187C71.0036 253.274 23.9164 191.13 21.9246 188.488L20.666 186.818L22.5725 185.951C25.5874 184.582 96.7349 152.489 123.932 159.402C134.102 161.982 143.251 167.578 150.174 175.456C157.097 183.333 161.472 193.122 162.722 203.537C163.972 213.951 162.04 224.503 157.179 233.805C152.319 243.107 144.757 250.723 135.488 255.653L135.488 255.653ZM25.8936 188.146C33.7278 198.276 75.3709 250.923 99.0313 256.937C111.535 260.109 124.791 258.187 135.886 251.593C146.982 244.999 155.007 234.273 158.198 221.774C161.389 209.275 159.484 196.025 152.903 184.938C146.322 173.852 135.602 165.836 123.102 162.652C99.4421 156.64 37.6308 182.99 25.8936 188.146Z" fill="#D0CDE1" fill-opacity="0.35"/>
<defs>
<linearGradient id="paint0_linear" x1="294.844" y1="25.6253" x2="279.642" y2="162.318" gradientUnits="userSpaceOnUse">
<stop stop-color="#FFACAC" stop-opacity="0.35"/>
<stop offset="1" stop-color="#FFE8E8" stop-opacity="0"/>
</linearGradient>
<linearGradient id="paint1_linear" x1="205.187" y1="-103.293" x2="189.986" y2="33.3989" gradientUnits="userSpaceOnUse">
<stop stop-color="#FFACAC" stop-opacity="0.35"/>
<stop offset="1" stop-color="#FFE8E8" stop-opacity="0"/>
</linearGradient>
</defs>
</svg>
