<svg width="155" height="587" viewBox="0 0 155 587" fill="none" xmlns="http://www.w3.org/2000/svg">
<path d="M8.1442 333.104C17.4884 367.702 49.4944 389.13 49.4944 389.13C49.4944 389.13 66.3505 354.462 57.0063 319.864C47.6621 285.265 15.6561 263.838 15.6561 263.838C15.6561 263.838 -1.20002 298.505 8.1442 333.104Z" fill="#E6E6E6"/>
<path d="M80.6781 514.044C62.8607 545.127 70.3655 582.948 70.3655 582.948C70.3655 582.948 106.758 570.373 124.575 539.29C142.393 508.207 134.888 470.386 134.888 470.386C134.888 470.386 98.4955 482.961 80.6781 514.044Z" fill="#E6E6E6"/>
<path d="M99.2211 111.615C81.4037 142.698 88.9084 180.518 88.9084 180.518C88.9084 180.518 125.301 167.943 143.118 136.86C160.936 105.777 153.431 67.9565 153.431 67.9565C153.431 67.9565 117.039 80.5316 99.2211 111.615Z" fill="#E6E6E6"/>
<path d="M70.5743 586.048L71.512 582.029L71.0432 584.038L71.52 582.031C71.3761 581.997 57.0663 578.339 46.3268 558.786C32.1981 533.061 23.3973 478.725 61.7021 365.947C96.9716 262.105 92.8318 181.935 83.1488 132.968C72.6297 79.7742 54.007 51.6134 53.2193 50.4404L49.7997 52.744C49.9889 53.0262 68.822 81.5537 79.1549 134.016C88.6941 182.449 92.7333 261.768 57.8008 364.617C18.9266 479.072 28.2112 534.589 42.846 561.009C54.5149 582.076 69.9234 585.896 70.5743 586.048Z" fill="#E6E6E6"/>
<path d="M51.5086 103.187C23.0609 103.187 -0.000427246 80.0878 -0.000427246 51.5935C-0.000427246 23.0992 23.0609 0 51.5086 0C79.9562 0 103.018 23.0992 103.018 51.5935C103.018 80.0878 79.9562 103.187 51.5086 103.187Z" fill="#E6E6E6"/>
</svg>
