<svg width="155" height="587" viewBox="0 0 155 587" fill="none" xmlns="http://www.w3.org/2000/svg">
<path d="M146.856 333.104C137.512 367.702 105.506 389.13 105.506 389.13C105.506 389.13 88.6495 354.462 97.9937 319.864C107.338 285.265 139.344 263.838 139.344 263.838C139.344 263.838 156.2 298.505 146.856 333.104Z" fill="#E6E6E6"/>
<path d="M74.3219 514.044C92.1393 545.127 84.6345 582.948 84.6345 582.948C84.6345 582.948 48.2419 570.373 30.4245 539.29C12.6071 508.207 20.1119 470.386 20.1119 470.386C20.1119 470.386 56.5045 482.961 74.3219 514.044Z" fill="#E6E6E6"/>
<path d="M55.7789 111.615C73.5963 142.698 66.0916 180.518 66.0916 180.518C66.0916 180.518 29.699 167.943 11.8816 136.86C-5.93586 105.777 1.56899 67.9565 1.56899 67.9565C1.56899 67.9565 37.9614 80.5316 55.7789 111.615Z" fill="#E6E6E6"/>
<path d="M84.4257 586.048L83.488 582.029L83.9568 584.038L83.48 582.031C83.6239 581.997 97.9337 578.339 108.673 558.786C122.802 533.061 131.603 478.725 93.2979 365.947C58.0284 262.105 62.1682 181.935 71.8512 132.968C82.3703 79.7742 100.993 51.6134 101.781 50.4404L105.2 52.744C105.011 53.0262 86.178 81.5537 75.8451 134.016C66.3059 182.449 62.2667 261.768 97.1992 364.617C136.073 479.072 126.789 534.589 112.154 561.009C100.485 582.076 85.0766 585.896 84.4257 586.048Z" fill="#E6E6E6"/>
<path d="M103.491 103.187C131.939 103.187 155 80.0878 155 51.5935C155 23.0992 131.939 0 103.491 0C75.0438 0 51.9824 23.0992 51.9824 51.5935C51.9824 80.0878 75.0438 103.187 103.491 103.187Z" fill="#E6E6E6"/>
</svg>
