<svg width="81" height="290" viewBox="0 0 81 290" fill="none" xmlns="http://www.w3.org/2000/svg">
<path d="M6.18843 162.599C10.4489 179.561 25.8773 190.291 25.8773 190.291C25.8773 190.291 34.3981 173.521 30.1376 156.559C25.8771 139.597 10.4487 128.867 10.4487 128.867C10.4487 128.867 1.92795 145.637 6.18843 162.599Z" fill="#DADADA"/>
<path d="M40.0147 251.507C31.0558 266.52 34.3913 285.038 34.3913 285.038C34.3913 285.038 52.2521 279.215 61.2109 264.203C70.1698 249.19 66.8342 230.672 66.8342 230.672C66.8342 230.672 48.9735 236.494 40.0147 251.507Z" fill="#3F3D56"/>
<path d="M52.5225 55.3124C43.5636 70.3253 46.8991 88.8434 46.8991 88.8434C46.8991 88.8434 64.7599 83.0208 73.7187 68.0079C82.6776 52.9951 79.3421 34.477 79.3421 34.477C79.3421 34.477 61.4813 40.2996 52.5225 55.3124Z" fill="#3F3D56"/>
<path d="M38.5215 288.862L34.9584 284.601L34.7125 285.577L34.9623 284.602C34.8929 284.584 27.944 282.676 22.873 273.043C16.2022 260.37 12.3765 233.782 32.0316 179.085C50.1297 128.721 48.8005 89.5691 44.4977 65.5934C39.8251 39.5485 30.9826 25.6479 30.6089 25.0689L28.9205 26.1634C29.0103 26.3027 37.9518 40.384 42.5414 66.0703C46.778 89.7842 48.0655 128.52 30.1409 178.402C10.1927 233.913 14.2437 261.081 21.1558 274.098C26.6673 284.477 38.2058 288.783 38.5215 288.862Z" fill="#3F3D56"/>
<path d="M29.3219 50.7905C15.4449 50.5457 4.39417 39.0767 4.63929 25.1736C4.88442 11.2706 16.3326 0.198357 30.2095 0.443094C44.0865 0.687831 55.1372 12.1569 54.8921 26.0599C54.647 39.963 43.1988 51.0352 29.3219 50.7905Z" fill="url(#paint0_linear)"/>
<defs>
<linearGradient id="paint0_linear" x1="30.2095" y1="0.443094" x2="-2.59608" y2="30.935" gradientUnits="userSpaceOnUse">
<stop stop-color="#CCE4F7"/>
<stop offset="1" stop-color="#AECFFF"/>
</linearGradient>
</defs>
</svg>
