<svg width="155" height="554" viewBox="0 0 155 554" fill="none" xmlns="http://www.w3.org/2000/svg">
<path d="M142.357 310.684C134.216 343.094 104.736 363.597 104.736 363.597C104.736 363.597 88.4553 331.554 96.596 299.144C104.737 266.735 134.216 246.232 134.216 246.232C134.216 246.232 150.497 278.275 142.357 310.684Z" fill="#DADADA"/>
<path d="M77.7232 480.566C94.8412 509.252 88.468 544.635 88.468 544.635C88.468 544.635 54.3408 533.509 37.2227 504.824C20.1047 476.138 26.478 440.755 26.478 440.755C26.478 440.755 60.6052 451.88 77.7232 480.566Z" fill="#3F3D56"/>
<path d="M53.8248 105.689C70.9428 134.374 64.5695 169.757 64.5695 169.757C64.5695 169.757 30.4423 158.632 13.3243 129.946C-3.79372 101.261 2.57958 65.8775 2.57958 65.8775C2.57958 65.8775 36.7068 77.003 53.8248 105.689Z" fill="#3F3D56"/>
<path d="M80.576 551.94L87.3842 543.798L87.8542 545.663L87.3768 543.8C87.5094 543.765 100.787 540.12 110.476 521.714C123.222 497.499 130.532 446.697 92.9766 342.184C58.3959 245.953 60.9356 171.143 69.1571 125.332C78.0853 75.567 94.981 49.0067 95.695 47.9003L98.9211 49.9917C98.7495 50.2579 81.6647 77.1635 72.8951 126.243C64.8001 171.554 62.34 245.569 96.5892 340.88C134.705 446.947 126.965 498.858 113.757 523.729C103.226 543.561 81.1793 551.789 80.576 551.94Z" fill="#3F3D56"/>
<path d="M98.1553 97.0473C124.67 96.5797 145.786 74.6653 145.317 48.1003C144.849 21.5352 122.974 0.379012 96.4592 0.846641C69.944 1.31427 48.8289 23.2286 49.2973 49.7937C49.7656 76.3588 71.6401 97.5149 98.1553 97.0473Z" fill="url(#paint0_linear)"/>
<defs>
<linearGradient id="paint0_linear" x1="96.4592" y1="0.846642" x2="159.142" y2="59.1087" gradientUnits="userSpaceOnUse">
<stop stop-color="#CCE4F7"/>
<stop offset="1" stop-color="#AECFFF"/>
</linearGradient>
</defs>
</svg>
