<svg width="146" height="180" viewBox="0 0 146 180" fill="none" xmlns="http://www.w3.org/2000/svg">
<path d="M58.0872 85.9333L52.7676 64.8502C43.3352 60.8334 33.6849 57.3544 23.8625 54.4297L23.1908 64.2279L20.4672 53.4333C8.28596 49.9381 -0.000915527 48.3984 -0.000915527 48.3984C-0.000915527 48.3984 11.1928 91.171 34.6708 123.871L62.0279 128.7L40.7749 131.779C43.7295 135.351 46.9047 138.732 50.2817 141.903C84.4356 173.758 122.477 188.374 135.249 174.547C148.021 160.721 130.687 123.688 96.5335 91.8323C85.9454 81.9567 72.6446 74.0316 59.3305 67.7944L58.0872 85.9333Z" fill="#E6E6E6"/>
<path d="M108.682 63.0377L114.973 42.2266C108.965 33.8888 102.493 25.8982 95.5896 18.2928L89.9743 26.3315L93.1956 15.6762C84.5659 6.35709 78.2638 0.734863 78.2638 0.734863C78.2638 0.734863 65.8436 43.1642 69.1206 83.3517L90.0555 101.695L70.2781 93.2917C70.9702 97.8837 71.949 102.427 73.2087 106.896C86.0591 151.906 111.106 184.176 129.152 178.974C147.198 173.771 151.409 133.067 138.559 88.0568C134.575 74.1034 127.266 60.4106 119.077 48.1559L108.682 63.0377Z" fill="#E6E6E6"/>
</svg>
