<svg width="412" height="440" viewBox="0 0 412 440" fill="none" xmlns="http://www.w3.org/2000/svg">
<path d="M353.802 85.6362L359.132 64.6023C368.582 60.5949 378.251 57.124 388.091 54.2062L388.764 63.9814L391.493 53.2121C403.697 49.725 412 48.189 412 48.189C412 48.189 400.785 90.8617 377.263 123.486L349.854 128.303L371.147 131.375C368.187 134.938 365.006 138.311 361.622 141.475C327.404 173.256 289.292 187.838 276.496 174.043C263.699 160.249 281.065 123.303 315.284 91.5214C325.892 81.6689 339.217 73.7623 352.557 67.5397L353.802 85.6362Z" fill="#E6E6E6"/>
<path d="M303.113 62.7946L296.81 42.0321C302.829 33.7138 309.313 25.7418 316.23 18.1541L321.856 26.1741L318.628 15.5437C327.274 6.24633 333.588 0.637207 333.588 0.637207C333.588 0.637207 346.032 42.9675 342.749 83.0612L321.774 101.361L341.589 92.978C340.896 97.5592 339.915 102.092 338.653 106.55C325.778 151.455 300.685 183.65 282.605 178.46C264.525 173.27 260.305 132.66 273.18 87.7553C277.171 73.8344 284.494 60.1736 292.698 47.9475L303.113 62.7946Z" fill="#E6E6E6"/>
<path d="M41.3486 162.42C41.3486 154.136 48.0644 147.42 56.3486 147.42H243.759C252.043 147.42 258.759 140.704 258.759 132.42V121.046C258.759 112.762 252.043 106.046 243.759 106.046H15C6.71574 106.046 0 112.762 0 121.046V349.965C0 358.249 6.71573 364.965 15 364.965H26.3486C34.6329 364.965 41.3486 358.249 41.3486 349.965V162.42Z" fill="#3F3D56"/>
<path d="M293.438 383.331C293.438 391.615 286.722 398.331 278.438 398.331H91.0274C82.7431 398.331 76.0273 405.047 76.0273 413.331V424.704C76.0273 432.988 82.7431 439.704 91.0273 439.704H319.786C328.071 439.704 334.786 432.988 334.786 424.704V195.785C334.786 187.501 328.071 180.785 319.786 180.785H308.438C300.153 180.785 293.438 187.501 293.438 195.785V383.331Z" fill="#3F3D56"/>
<path d="M298.447 127.4H37.6758C29.3915 127.4 22.6758 134.116 22.6758 142.4V403.35C22.6758 411.634 29.3915 418.35 37.6758 418.35H298.447C306.731 418.35 313.447 411.634 313.447 403.35V142.4C313.447 134.116 306.731 127.4 298.447 127.4Z" fill="#B6CAFF"/>
<path d="M105.4 184.79H70.8281V187.673H105.4V184.79Z" fill="white"/>
<path d="M151.495 184.79H116.924V187.673H151.495V184.79Z" fill="white"/>
<path d="M218.478 211.455H183.906V214.337H218.478V211.455Z" fill="white"/>
<path d="M265.292 211.455H230.721V214.337H265.292V211.455Z" fill="white"/>
<path d="M265.292 184.79H163.738V187.673H265.292V184.79Z" fill="white"/>
<path d="M172.382 211.455H70.8281V214.337H172.382V211.455Z" fill="white"/>
<path d="M172.382 238.12H70.8281V241.003H172.382V238.12Z" fill="white"/>
<path d="M265.293 238.12H194.709V241.003H265.293V238.12Z" fill="white"/>
<path d="M105.4 282.217H70.8281V285.101H105.4V282.217Z" fill="white"/>
<path d="M151.495 282.217H116.924V285.101H151.495V282.217Z" fill="white"/>
<path d="M218.478 308.883H183.906V311.767H218.478V308.883Z" fill="white"/>
<path d="M265.292 308.883H230.721V311.767H265.292V308.883Z" fill="white"/>
<path d="M265.292 282.217H163.738V285.101H265.292V282.217Z" fill="white"/>
<path d="M172.382 308.883H70.8281V311.767H172.382V308.883Z" fill="white"/>
<path d="M172.382 335.548H70.8281V338.432H172.382V335.548Z" fill="white"/>
<path d="M265.293 335.548H194.709V338.432H265.293V335.548Z" fill="white"/>
</svg>
