<svg width="184" height="494" viewBox="0 0 184 494" fill="none" xmlns="http://www.w3.org/2000/svg">
<path d="M91.8618 374.974C41.1284 374.974 0.000854492 291.033 0.000854492 187.487C0.000854492 83.9408 41.1284 0 91.8618 0C142.595 0 183.723 83.9408 183.723 187.487C183.723 291.033 142.595 374.974 91.8618 374.974Z" fill="#AECFFF" fill-opacity="0.25"/>
<path d="M81.1346 494C117.863 273.569 81.5054 53.9423 81.1339 51.7499L78.4601 52.2029C78.8309 54.3914 115.11 273.586 78.4594 493.555L81.1346 494Z" fill="#3F3D56" fill-opacity="0.1"/>
<path d="M9.91154 149.176L92.9805 193.621L91.7011 196.013L8.63221 151.568L9.91154 149.176Z" fill="#3F3D56" fill-opacity="0.1"/>
<path d="M179.368 171.44L180.648 173.832L97.5912 218.299L96.3113 215.907L179.368 171.44Z" fill="#3F3D56" fill-opacity="0.1"/>
</svg>
