<svg width="768" height="592" viewBox="0 0 768 592" fill="none" xmlns="http://www.w3.org/2000/svg">
<path d="M158.225 1405.14C251.373 1379.6 317.718 1329.78 355.416 1257.09C383.406 1203.11 395.335 1137.57 390.874 1062.29C387.497 1006.76 375.383 952.117 354.978 900.375C246.972 624.884 269.699 468.234 307.783 385.331C349.541 294.43 418.607 269.378 419.3 269.136L417.71 264.57C417 264.818 346.144 290.407 303.471 383.135C278.87 436.594 268.175 501.812 271.683 576.978C276.051 670.525 302.56 779.926 350.474 902.143C370.693 953.412 382.698 1007.55 386.046 1062.58C393.363 1186.05 359.557 1344.91 156.949 1400.48L158.225 1405.14Z" fill="#FAFAFA" fill-opacity="0.25"/>
<path d="M412.547 996.613C485.981 976.475 498.239 918.994 495.591 874.321C494.394 854.61 490.094 835.213 482.851 816.846C445.014 720.334 452.929 665.616 466.231 636.709C480.678 605.318 504.312 596.778 504.549 596.695L502.96 592.13C501.913 592.494 477.137 601.448 461.838 634.691C441.918 677.978 447.472 739.858 478.347 818.615C485.406 836.508 489.596 855.405 490.764 874.609C493.306 917.498 481.577 972.67 411.271 991.952L412.547 996.613Z" fill="#FAFAFA"/>
<path d="M245.878 422.82L249.175 419.28C195.852 369.642 211.102 315.335 233.285 278.519C243.244 262.047 255.739 247.246 270.307 234.662C334.26 179.19 367.938 126.942 370.407 79.3699C372.304 42.836 354.515 23.4309 353.758 22.6235L350.226 25.9291C350.398 26.1148 367.425 44.8273 365.568 79.3173C363.858 111.053 345.395 163.132 267.139 231.01C252.188 243.927 239.365 259.119 229.143 276.026C206.036 314.376 190.183 370.974 245.878 422.82Z" fill="#FAFAFA" fill-opacity="0.25"/>
<path d="M165.598 155.341C171.95 173.494 185.257 188.374 202.591 196.709C219.925 205.043 239.867 206.149 258.028 199.783C276.19 193.417 291.085 180.1 299.436 162.763C307.786 145.425 308.909 125.487 302.557 107.334C289.329 69.5332 190.966 8.13681 190.966 8.13681C190.966 8.13681 152.37 117.54 165.598 155.341Z" fill="url(#paint0_linear)"/>
<path d="M245.241 -56.6803C251.593 -38.5275 264.9 -23.6472 282.234 -15.3128C299.568 -6.97836 319.509 -5.87259 337.671 -12.2387C355.833 -18.6048 370.728 -31.9213 379.078 -49.2587C387.429 -66.5962 388.552 -86.5344 382.199 -104.687C368.972 -142.488 270.608 -203.885 270.608 -203.885C270.608 -203.885 232.013 -94.4814 245.241 -56.6803Z" fill="url(#paint1_linear)"/>
<path d="M85.6954 605.139C90.464 605.189 202.898 606.575 234.192 632.162C247.363 642.932 256.473 657.865 260.022 674.507C263.572 691.148 261.35 708.507 253.722 723.727C246.094 738.948 233.514 751.125 218.052 758.254C202.59 765.384 185.165 767.042 168.644 762.956C163.351 761.661 158.219 759.783 153.341 757.356C148.301 754.854 143.56 751.794 139.204 748.233C107.916 722.622 84.2959 612.738 83.3065 608.063L82.6632 605.116L85.6954 605.139ZM142.271 744.479C156.66 756.247 175.141 761.815 193.648 759.956C212.154 758.098 229.171 748.966 240.954 734.57C252.737 720.174 258.321 701.692 256.478 683.191C254.634 664.69 245.515 647.684 231.126 635.916C223.833 629.942 211.565 625.361 197.148 621.822C157.702 612.136 102.217 610.341 88.6973 610.034C92.7463 628.06 115.04 722.205 142.271 744.479Z" fill="#FAFAFA"/>
<path d="M504.007 284.817C522.133 289.299 541.288 286.824 557.691 277.882C593.234 258.545 637.028 154.964 638.876 150.564L640.043 147.782L637.074 147.25C632.378 146.41 521.656 126.891 486.113 146.228C472.82 153.452 462.021 164.527 455.137 177.996C448.252 191.466 445.604 206.7 447.54 221.695C449.476 236.69 455.906 250.744 465.984 262.011C476.063 273.277 489.318 281.227 504.007 284.817L504.007 284.817ZM633.211 151.498C625.851 168.439 586.302 256.814 555.381 273.636C539.039 282.517 519.843 284.549 502.015 279.285C484.186 274.021 469.184 261.892 460.307 245.565C451.431 229.237 449.406 210.048 454.678 192.216C459.95 174.384 472.088 159.37 488.422 150.474C519.342 133.654 614.994 148.472 633.211 151.498Z" fill="#FAFAFA" fill-opacity="0.25"/>
<path d="M560.517 477.593C543.622 486.797 531.068 502.329 525.616 520.775C520.163 539.22 522.258 559.069 531.44 575.958C540.623 592.848 556.14 605.394 574.582 610.841C593.024 616.287 612.88 614.186 629.786 605.001C664.992 585.847 709.895 478.872 709.895 478.872C709.895 478.872 595.723 458.44 560.517 477.593Z" fill="url(#paint2_linear)"/>
<path d="M343.995 427.173C348.148 418.693 355.07 411.88 363.617 407.862C372.164 403.844 381.823 402.86 391 405.074C393.887 405.794 396.69 406.816 399.362 408.123C419.23 417.832 445.275 472.708 446.374 475.02L447.667 477.753L444.714 478.422C442.393 478.948 391.967 490.173 368.44 484.396C366.558 483.958 364.729 483.317 362.985 482.484C353.133 477.668 345.599 469.138 342.038 458.767C338.477 448.396 339.181 437.033 343.995 427.173L343.995 427.173ZM346.606 457.197C348.145 461.746 350.575 465.941 353.754 469.539C356.933 473.137 360.798 476.066 365.123 478.153C381.079 485.955 428.28 476.902 440.665 474.34C435.09 463.011 413.203 420.262 397.224 412.454C390.729 409.284 383.438 408.112 376.274 409.087C369.109 410.061 362.393 413.137 356.975 417.927C351.556 422.717 347.679 429.004 345.833 435.995C343.988 442.985 344.257 450.363 346.606 457.197Z" fill="#FAFAFA" fill-opacity="0.25"/>
<defs>
<linearGradient id="paint0_linear" x1="200.087" y1="20.148" x2="269.938" y2="205.608" gradientUnits="userSpaceOnUse">
<stop stop-color="#FFACAC" stop-opacity="0.35"/>
<stop offset="1" stop-color="#FFE8E8" stop-opacity="0"/>
</linearGradient>
<linearGradient id="paint1_linear" x1="339.053" y1="-187.079" x2="379.085" y2="6.81893" gradientUnits="userSpaceOnUse">
<stop stop-color="#FFACAC" stop-opacity="0.35"/>
<stop offset="1" stop-color="#FFE8E8" stop-opacity="0"/>
</linearGradient>
<linearGradient id="paint2_linear" x1="666.044" y1="457.43" x2="527.386" y2="581.683" gradientUnits="userSpaceOnUse">
<stop stop-color="#FFACAC" stop-opacity="0.35"/>
<stop offset="1" stop-color="#FFE8E8" stop-opacity="0"/>
</linearGradient>
</defs>
</svg>
