<svg width="1021" height="1191" viewBox="0 0 1021 1191" fill="none" xmlns="http://www.w3.org/2000/svg">
<g clip-path="url(#clip0)">
<path d="M264.254 211.723C224.758 242.581 246.904 335.691 229.272 382.189C226.215 390.23 223.49 398.442 221.096 406.824C210.875 442.513 206.6 481.049 208.252 520.885C208.356 523.32 208.48 525.757 208.624 528.197C208.681 529.12 208.732 530.035 208.789 530.958C209.048 534.779 209.355 538.607 209.71 542.445C209.825 543.654 209.949 544.857 210.072 546.06C210.171 547.089 210.285 548.12 210.398 549.151C211.608 560.192 213.265 571.292 215.371 582.453C215.602 583.669 215.839 584.893 216.077 586.118C216.289 587.169 216.492 588.226 216.711 589.285C216.861 590.026 217.017 590.775 217.175 591.508C217.426 592.75 217.692 593.994 217.966 595.231C218.672 598.454 219.413 601.676 220.192 604.897C220.545 606.377 220.905 607.865 221.289 609.348C221.288 609.365 221.291 609.381 221.299 609.396C221.668 610.877 222.045 612.352 222.438 613.828C222.791 615.184 223.151 616.548 223.528 617.898C224.631 621.985 225.798 626.064 227.028 630.135C227.273 630.98 227.534 631.827 227.794 632.674C228.155 633.844 228.509 635.005 228.885 636.177C229.36 637.671 229.83 639.157 230.314 640.645C230.764 642.035 231.222 643.419 231.687 644.811L231.791 645.104C232.256 646.496 232.73 647.881 233.219 649.269C235.69 656.434 238.352 663.584 241.205 670.719C241.561 671.616 241.925 672.507 242.289 673.398C242.44 673.805 242.607 674.213 242.783 674.615C243.206 675.653 243.63 676.691 244.068 677.73C244.586 679.013 245.127 680.29 245.684 681.569C247.207 685.148 248.776 688.715 250.391 692.269C250.933 693.476 251.477 694.669 252.037 695.863C252.04 695.89 252.05 695.915 252.066 695.937C252.626 697.131 253.185 698.325 253.745 699.519C254.525 701.191 255.327 702.872 256.155 704.534C257.088 706.473 258.046 708.407 259.01 710.349C259.615 711.549 260.221 712.749 260.835 713.942C261.44 715.142 262.06 716.343 262.683 717.53C265.796 723.516 269.041 729.469 272.416 735.389C273.675 737.585 274.943 739.774 276.233 741.974C277.022 743.32 277.826 744.669 278.639 746.01C279.349 747.184 280.065 748.366 280.783 749.533C281.492 750.707 282.219 751.867 282.944 753.043L282.95 753.052C283.014 753.168 283.086 753.278 283.157 753.387C284.343 755.295 285.553 757.198 286.763 759.1C287.471 760.219 288.197 761.325 288.929 762.44C289.574 763.442 290.235 764.447 290.904 765.445C292.878 768.451 294.894 771.438 296.951 774.407C297.608 775.372 298.274 776.331 298.949 777.283C300.366 779.327 301.809 781.352 303.268 783.378C303.871 784.22 304.48 785.071 305.092 785.907C306.731 788.165 308.403 790.411 310.084 792.651C311.031 793.916 311.986 795.174 312.95 796.425C314.086 797.915 315.231 799.398 316.385 800.875C372.191 872.304 460.821 935.273 549.252 975.09C571.43 985.138 594.198 993.835 617.43 1001.13C630.911 1005.34 644.17 1008.88 657.102 1011.69C753.361 1032.72 830.695 1013.95 836.745 932.083C837.526 921.519 824.724 888.714 812.101 874.481C714.153 764.029 708.613 736.377 708.613 736.377C680.247 600.819 833.038 534.315 835.321 395.438C839.164 161.351 407.554 99.765 264.254 211.723Z" fill="url(#paint0_linear)"/>
<path d="M419.017 657.939L441.239 695.504L442.371 697.417L471.948 747.416L606.943 975.646C619.998 979.716 632.838 983.152 645.361 985.872L474.121 737.78L444.505 694.867L443.261 693.068L419.017 657.939Z" fill="#F2F2F2" fill-opacity="0.5"/>
<path d="M231.052 376.27C228.092 384.058 225.453 392.01 223.135 400.127L365.748 540.784L444.215 618.168L373.01 537.372L231.052 376.27Z" fill="#F2F2F2" fill-opacity="0.5"/>
<path d="M463.391 901.245C504.047 890.094 533.004 868.352 549.458 836.624C561.675 813.066 566.882 784.46 564.935 751.6C563.461 727.363 558.173 703.514 549.267 680.93C502.126 560.687 512.046 492.315 528.669 456.13C546.894 416.455 577.039 405.521 577.342 405.415L576.648 403.422C576.338 403.53 545.412 414.699 526.786 455.172C516.049 478.505 511.381 506.97 512.912 539.778C514.818 580.608 526.389 628.358 547.302 681.702C556.127 704.079 561.366 727.711 562.828 751.726C566.021 805.62 551.266 874.956 462.834 899.21L463.391 901.245Z" fill="#FAFAFA" fill-opacity="0.3"/>
<path d="M574.39 722.935C606.441 714.145 611.791 689.057 610.636 669.558C610.113 660.955 608.236 652.489 605.075 644.473C588.56 602.348 592.015 578.466 597.821 565.848C604.127 552.147 614.442 548.42 614.545 548.384L613.852 546.391C613.395 546.55 602.581 550.458 595.904 564.968C587.209 583.861 589.633 610.87 603.109 645.244C606.19 653.054 608.019 661.302 608.529 669.684C609.638 688.404 604.519 712.485 573.833 720.9L574.39 722.935Z" fill="#FAFAFA" fill-opacity="0.3"/>
<path d="M501.645 472.493L503.084 470.948C479.81 449.283 486.466 425.579 496.149 409.51C500.495 402.321 505.949 395.861 512.308 390.368C540.221 366.157 554.92 343.352 555.998 322.588C556.825 306.643 549.062 298.173 548.731 297.82L547.189 299.263C547.264 299.344 554.696 307.512 553.886 322.565C553.139 336.417 545.081 359.148 510.925 388.774C504.399 394.412 498.802 401.043 494.341 408.422C484.255 425.161 477.336 449.864 501.645 472.493Z" fill="#FAFAFA" fill-opacity="0.3"/>
<path d="M466.607 355.747C469.379 363.67 475.187 370.165 482.753 373.803C490.319 377.441 499.023 377.923 506.95 375.145C514.877 372.366 521.378 366.554 525.023 358.987C528.667 351.419 529.157 342.717 526.385 334.794C520.611 318.295 477.679 291.497 477.679 291.497C477.679 291.497 460.833 339.248 466.607 355.747Z" fill="url(#paint1_linear)"/>
<path d="M501.369 263.207C504.141 271.13 509.949 277.625 517.515 281.263C525.081 284.9 533.784 285.383 541.711 282.604C549.638 279.826 556.139 274.013 559.784 266.446C563.429 258.879 563.919 250.177 561.147 242.254C555.373 225.755 512.441 198.957 512.441 198.957C512.441 198.957 495.595 246.708 501.369 263.207Z" fill="url(#paint2_linear)"/>
<path d="M431.729 552.069C433.811 552.091 482.884 552.696 496.543 563.864C502.292 568.565 506.268 575.083 507.817 582.346C509.366 589.61 508.397 597.186 505.067 603.829C501.738 610.473 496.247 615.787 489.499 618.899C482.75 622.011 475.145 622.735 467.934 620.952C465.623 620.386 463.383 619.566 461.254 618.507C459.055 617.415 456.985 616.079 455.084 614.525C441.428 603.347 431.118 555.386 430.687 553.346L430.406 552.06L431.729 552.069ZM456.423 612.887C462.703 618.023 470.769 620.453 478.847 619.642C486.924 618.831 494.352 614.845 499.494 608.562C504.637 602.278 507.075 594.212 506.27 586.136C505.466 578.061 501.485 570.639 495.205 565.503C492.022 562.895 486.667 560.896 480.375 559.351C463.158 555.123 438.941 554.34 433.039 554.206C434.807 562.074 444.537 603.165 456.423 612.887Z" fill="#FAFAFA" fill-opacity="0.3"/>
<path d="M614.31 412.259C622.222 414.215 630.582 413.135 637.742 409.232C653.255 400.792 672.37 355.583 673.176 353.662L673.686 352.448L672.39 352.216C670.34 351.849 622.013 343.33 606.5 351.77C600.698 354.923 595.985 359.757 592.98 365.636C589.975 371.515 588.819 378.164 589.664 384.708C590.509 391.253 593.316 397.388 597.715 402.305C602.114 407.222 607.899 410.693 614.31 412.259L614.31 412.259ZM670.704 354.07C667.491 361.464 650.23 400.037 636.734 407.379C629.601 411.256 621.222 412.142 613.441 409.845C605.659 407.547 599.111 402.253 595.237 395.127C591.362 388 590.479 379.625 592.78 371.842C595.081 364.059 600.379 357.506 607.508 353.623C621.004 346.282 662.753 352.749 670.704 354.07Z" fill="#FAFAFA" fill-opacity="0.3"/>
<path d="M638.978 496.4C631.603 500.417 626.124 507.196 623.744 515.247C621.364 523.298 622.279 531.962 626.286 539.333C630.294 546.705 637.067 552.181 645.116 554.558C653.166 556.935 661.832 556.018 669.211 552.009C684.577 543.649 704.176 496.958 704.176 496.958C704.176 496.958 654.344 488.04 638.978 496.4Z" fill="url(#paint3_linear)"/>
<path d="M544.47 474.393C546.283 470.692 549.304 467.718 553.034 465.965C556.765 464.211 560.981 463.781 564.986 464.748C566.246 465.062 567.47 465.508 568.636 466.078C577.308 470.316 588.676 494.268 589.155 495.277L589.72 496.47L588.431 496.762C587.418 496.991 565.408 501.89 555.14 499.369C554.318 499.178 553.52 498.898 552.759 498.534C548.458 496.433 545.17 492.71 543.616 488.183C542.062 483.656 542.369 478.697 544.47 474.393L544.47 474.393ZM545.61 487.498C546.282 489.483 547.342 491.314 548.73 492.885C550.117 494.455 551.804 495.733 553.692 496.644C560.656 500.05 581.258 496.098 586.663 494.98C584.23 490.035 574.677 471.377 567.703 467.969C564.868 466.585 561.686 466.074 558.559 466.499C555.432 466.924 552.5 468.267 550.135 470.358C547.77 472.448 546.078 475.192 545.273 478.243C544.467 481.294 544.584 484.515 545.61 487.498Z" fill="#FAFAFA" fill-opacity="0.3"/>
<path d="M369.009 962.741C219.254 771.065 101.467 612.858 105.923 609.376C110.379 605.895 235.391 758.457 385.145 950.134C534.899 1141.81 652.687 1300.02 648.231 1303.5C643.775 1306.98 518.763 1154.42 369.009 962.741Z" fill="#3F3D56"/>
<path d="M344.808 981.652C241.132 848.953 159.587 739.425 162.672 737.015C165.757 734.605 252.303 840.225 355.979 972.924C459.655 1105.62 541.2 1215.15 538.115 1217.56C535.031 1219.97 448.484 1114.35 344.808 981.652Z" fill="#3F3D56"/>
<path d="M321.543 999.648C236.97 891.4 170.45 802.053 172.966 800.087C175.483 798.121 246.083 884.28 330.656 992.529C415.229 1100.78 481.749 1190.12 479.233 1192.09C476.716 1194.06 406.116 1107.9 321.543 999.648Z" fill="#3F3D56"/>
<path d="M627.754 564.473L745.163 762.929C745.526 754.224 745.823 745.2 746.053 735.857L627.754 564.473Z" fill="#F2F2F2" fill-opacity="0.5"/>
</g>
<defs>
<linearGradient id="paint0_linear" x1="853.547" y1="355.196" x2="141.283" y2="364.759" gradientUnits="userSpaceOnUse">
<stop stop-color="#CCE4F7"/>
<stop offset="1" stop-color="#AECFFF"/>
</linearGradient>
<linearGradient id="paint1_linear" x1="481.66" y1="296.74" x2="512.148" y2="377.687" gradientUnits="userSpaceOnUse">
<stop stop-color="#FFACAC" stop-opacity="0.35"/>
<stop offset="1" stop-color="#FFE8E8" stop-opacity="0"/>
</linearGradient>
<linearGradient id="paint2_linear" x1="542.314" y1="206.292" x2="559.787" y2="290.922" gradientUnits="userSpaceOnUse">
<stop stop-color="#FFACAC" stop-opacity="0.35"/>
<stop offset="1" stop-color="#FFE8E8" stop-opacity="0"/>
</linearGradient>
<linearGradient id="paint3_linear" x1="685.036" y1="487.599" x2="624.517" y2="541.832" gradientUnits="userSpaceOnUse">
<stop stop-color="#FFACAC" stop-opacity="0.35"/>
<stop offset="1" stop-color="#FFE8E8" stop-opacity="0"/>
</linearGradient>
<clipPath id="clip0">
<rect width="980.68" height="700.354" fill="white" transform="matrix(-0.615661 -0.788011 -0.788011 0.615661 1155.65 759.786)"/>
</clipPath>
</defs>
</svg>
