<svg width="740" height="1039" viewBox="0 0 740 1039" fill="none" xmlns="http://www.w3.org/2000/svg">
<g clip-path="url(#clip0)">
<path d="M144.744 206.032C108.401 234.426 128.779 320.104 112.554 362.89C109.742 370.29 107.234 377.846 105.031 385.559C95.6259 418.399 91.692 453.859 93.2125 490.515C93.3079 492.755 93.4221 494.998 93.555 497.243C93.6076 498.093 93.6539 498.934 93.7064 499.784C93.9448 503.299 94.2276 506.822 94.5546 510.353C94.6603 511.466 94.774 512.573 94.8877 513.68C94.9782 514.627 95.0828 515.576 95.1874 516.524C96.3004 526.684 97.8257 536.898 99.7635 547.167C99.9758 548.286 100.194 549.413 100.413 550.54C100.608 551.507 100.795 552.48 100.996 553.455C101.134 554.136 101.278 554.825 101.423 555.5C101.654 556.643 101.899 557.787 102.151 558.926C102.8 561.891 103.483 564.856 104.199 567.82C104.524 569.182 104.856 570.551 105.209 571.916C105.208 571.931 105.211 571.946 105.218 571.96C105.557 573.323 105.904 574.68 106.266 576.039C106.591 577.286 106.922 578.541 107.269 579.783C108.284 583.544 109.358 587.297 110.49 591.043C110.715 591.821 110.955 592.6 111.195 593.38C111.527 594.456 111.852 595.525 112.198 596.603C112.636 597.978 113.068 599.346 113.513 600.715C113.927 601.994 114.349 603.267 114.777 604.548L114.873 604.817C115.301 606.098 115.736 607.373 116.186 608.65C118.46 615.243 120.91 621.823 123.535 628.388C123.862 629.214 124.197 630.033 124.532 630.853C124.672 631.227 124.825 631.603 124.987 631.973C125.377 632.928 125.766 633.883 126.17 634.84C126.646 636.019 127.144 637.195 127.657 638.372C129.058 641.665 130.502 644.947 131.988 648.218C132.487 649.329 132.987 650.426 133.502 651.525C133.505 651.549 133.515 651.573 133.529 651.592C134.044 652.691 134.559 653.79 135.074 654.889C135.792 656.427 136.53 657.975 137.291 659.504C138.151 661.288 139.032 663.067 139.919 664.855C140.476 665.959 141.033 667.063 141.598 668.16C142.155 669.264 142.726 670.37 143.298 671.462C146.163 676.97 149.149 682.448 152.255 687.896C153.413 689.916 154.58 691.931 155.766 693.955C156.493 695.194 157.233 696.435 157.981 697.669C158.634 698.749 159.293 699.837 159.953 700.911C160.606 701.991 161.275 703.059 161.942 704.14L161.948 704.148C162.006 704.255 162.072 704.356 162.139 704.457C163.23 706.212 164.343 707.963 165.456 709.714C166.108 710.744 166.776 711.761 167.45 712.787C168.043 713.71 168.651 714.634 169.266 715.552C171.083 718.318 172.938 721.067 174.831 723.799C175.436 724.687 176.049 725.569 176.669 726.445C177.974 728.327 179.302 730.189 180.644 732.054C181.198 732.829 181.759 733.612 182.322 734.381C183.83 736.459 185.369 738.526 186.916 740.587C187.787 741.75 188.666 742.908 189.553 744.06C190.598 745.431 191.652 746.795 192.713 748.154C244.065 813.881 325.62 871.824 406.992 908.462C427.4 917.709 448.35 925.711 469.727 932.425C482.132 936.294 494.333 939.558 506.232 942.143C594.808 961.488 665.968 944.218 671.535 868.888C672.254 859.167 660.474 828.981 648.859 815.884C558.729 714.25 553.631 688.805 553.631 688.805C527.53 564.068 668.125 502.872 670.225 375.081C673.762 159.681 276.605 103.011 144.744 206.032Z" fill="url(#paint0_linear)"/>
<path d="M291.156 630.535L312.271 666.231L313.348 668.049L341.452 715.558L469.726 932.425C482.131 936.293 494.332 939.558 506.231 942.142L343.516 706.402L315.375 665.625L314.193 663.916L291.156 630.535Z" fill="#F2F2F2" fill-opacity="0.35"/>
<path d="M112.551 362.89C109.739 370.29 107.231 377.846 105.028 385.559L240.541 519.213L315.102 592.745L247.442 515.971L112.551 362.89Z" fill="#F2F2F2" fill-opacity="0.35"/>
<path d="M333.321 861.729C371.953 851.133 399.469 830.474 415.103 800.325C426.712 777.94 431.659 750.758 429.809 719.534C428.409 696.504 423.385 673.842 414.922 652.382C370.128 538.126 379.553 473.157 395.349 438.774C412.667 401.074 441.311 390.684 441.599 390.584L440.939 388.69C440.645 388.793 411.258 399.406 393.56 437.864C383.357 460.035 378.921 487.083 380.376 518.257C382.188 557.055 393.182 602.428 413.054 653.116C421.44 674.379 426.418 696.834 427.807 719.653C430.842 770.865 416.821 836.749 332.792 859.795L333.321 861.729Z" fill="#FAFAFA" fill-opacity="0.35"/>
<path d="M438.793 692.296C469.249 683.944 474.333 660.104 473.235 641.577C472.738 633.402 470.955 625.357 467.951 617.74C452.258 577.712 455.541 555.019 461.058 543.03C467.05 530.011 476.852 526.469 476.95 526.435L476.291 524.541C475.857 524.692 465.581 528.406 459.236 542.193C450.974 560.146 453.278 585.81 466.083 618.473C469.01 625.894 470.748 633.732 471.233 641.696C472.287 659.484 467.423 682.366 438.264 690.363L438.793 692.296Z" fill="#FAFAFA" fill-opacity="0.35"/>
<path d="M369.672 454.323L371.04 452.854C348.925 432.268 355.249 409.744 364.45 394.475C368.58 387.644 373.762 381.505 379.804 376.286C406.328 353.28 420.295 331.611 421.319 311.881C422.106 296.729 414.728 288.681 414.414 288.346L412.949 289.717C413.02 289.794 420.082 297.555 419.312 311.859C418.603 325.021 410.946 346.62 378.49 374.772C372.289 380.129 366.971 386.43 362.732 393.441C353.148 409.347 346.573 432.82 369.672 454.323Z" fill="#FAFAFA" fill-opacity="0.35"/>
<path d="M336.376 343.389C339.01 350.917 344.529 357.089 351.718 360.546C358.907 364.002 367.178 364.461 374.71 361.82C382.243 359.18 388.42 353.657 391.883 346.467C395.347 339.276 395.812 331.007 393.178 323.479C387.692 307.801 346.897 282.338 346.897 282.338C346.897 282.338 330.89 327.711 336.376 343.389Z" fill="url(#paint1_linear)"/>
<path d="M369.409 255.456C372.043 262.984 377.562 269.156 384.751 272.612C391.94 276.069 400.211 276.527 407.743 273.887C415.276 271.247 421.453 265.724 424.916 258.534C428.38 251.343 428.845 243.074 426.211 235.545C420.725 219.868 379.93 194.404 379.93 194.404C379.93 194.404 363.923 239.778 369.409 255.456Z" fill="url(#paint2_linear)"/>
<path d="M303.235 529.937C305.213 529.958 351.843 530.533 364.822 541.145C370.285 545.611 374.063 551.805 375.535 558.707C377.007 565.608 376.085 572.808 372.922 579.12C369.758 585.433 364.541 590.483 358.128 593.44C351.715 596.397 344.489 597.084 337.637 595.39C335.442 594.853 333.313 594.074 331.29 593.067C329.2 592.03 327.233 590.76 325.427 589.284C312.45 578.662 302.654 533.089 302.244 531.15L301.977 529.928L303.235 529.937ZM326.699 587.727C332.667 592.607 340.331 594.916 348.007 594.146C355.682 593.375 362.74 589.588 367.626 583.617C372.513 577.646 374.829 569.981 374.065 562.308C373.3 554.635 369.518 547.582 363.55 542.702C360.526 540.224 355.438 538.324 349.459 536.856C333.099 532.839 310.087 532.095 304.48 531.967C306.159 539.443 315.405 578.489 326.699 587.727Z" fill="#FAFAFA" fill-opacity="0.35"/>
<path d="M476.727 397.087C484.245 398.946 492.189 397.92 498.992 394.211C513.733 386.191 531.896 343.233 532.662 341.408L533.146 340.254L531.915 340.033C529.968 339.685 484.047 331.59 469.306 339.609C463.793 342.605 459.314 347.199 456.459 352.785C453.604 358.371 452.505 364.689 453.308 370.908C454.111 377.127 456.778 382.956 460.958 387.629C465.138 392.301 470.635 395.599 476.727 397.087L476.727 397.087ZM530.313 341.795C527.26 348.821 510.858 385.473 498.034 392.45C491.256 396.134 483.295 396.976 475.901 394.793C468.507 392.61 462.285 387.58 458.603 380.808C454.922 374.036 454.082 366.078 456.269 358.682C458.455 351.287 463.489 345.06 470.264 341.37C483.087 334.395 522.758 340.54 530.313 341.795Z" fill="#FAFAFA" fill-opacity="0.35"/>
<path d="M500.165 477.039C493.158 480.856 487.951 487.298 485.69 494.948C483.428 502.598 484.297 510.83 488.106 517.835C491.914 524.839 498.35 530.043 505.998 532.302C513.647 534.56 521.882 533.689 528.893 529.88C543.494 521.936 562.117 477.57 562.117 477.57C562.117 477.57 514.766 469.095 500.165 477.039Z" fill="url(#paint3_linear)"/>
<path d="M410.361 456.128C412.084 452.611 414.955 449.785 418.499 448.119C422.044 446.452 426.05 446.044 429.856 446.962C431.053 447.261 432.216 447.685 433.324 448.227C441.564 452.254 452.366 475.013 452.822 475.972L453.358 477.105L452.133 477.383C451.171 477.601 430.257 482.256 420.5 479.86C419.719 479.679 418.96 479.413 418.237 479.067C414.151 477.07 411.027 473.532 409.55 469.231C408.073 464.93 408.365 460.217 410.361 456.128L410.361 456.128ZM411.444 468.58C412.083 470.466 413.09 472.206 414.409 473.699C415.727 475.191 417.33 476.405 419.124 477.271C425.742 480.507 445.318 476.752 450.454 475.69C448.142 470.991 439.065 453.261 432.438 450.023C429.744 448.709 426.72 448.223 423.749 448.627C420.777 449.031 417.992 450.307 415.745 452.293C413.497 454.28 411.889 456.887 411.124 459.786C410.358 462.685 410.47 465.746 411.444 468.58Z" fill="#FAFAFA" fill-opacity="0.35"/>
<path d="M243.638 920.164C101.339 738.03 -10.5843 587.699 -6.35023 584.391C-2.11612 581.083 116.672 726.05 258.971 908.184C401.269 1090.32 513.193 1240.65 508.958 1243.96C504.724 1247.26 385.936 1102.3 243.638 920.164Z" fill="#3F3D56"/>
<path d="M220.641 938.133C122.127 812.04 44.6416 707.965 47.5729 705.675C50.5042 703.385 132.742 803.746 231.257 929.839C329.771 1055.93 407.257 1160.01 404.325 1162.3C401.394 1164.59 319.156 1064.23 220.641 938.133Z" fill="#3F3D56"/>
<path d="M198.535 955.233C118.172 852.374 54.9637 767.475 57.3549 765.607C59.7461 763.739 126.831 845.608 207.194 948.468C287.556 1051.33 350.765 1136.23 348.374 1138.09C345.982 1139.96 278.897 1058.09 198.535 955.233Z" fill="#3F3D56"/>
<path d="M489.499 541.723L601.063 730.299C601.408 722.027 601.69 713.452 601.909 704.574L489.499 541.723Z" fill="#F2F2F2" fill-opacity="0.35"/>
</g>
<defs>
<linearGradient id="paint0_linear" x1="686.996" y1="338.052" x2="31.5895" y2="346.851" gradientUnits="userSpaceOnUse">
<stop stop-color="#CCE4F7"/>
<stop offset="1" stop-color="#AECFFF"/>
</linearGradient>
<linearGradient id="paint1_linear" x1="350.68" y1="287.319" x2="379.649" y2="364.237" gradientUnits="userSpaceOnUse">
<stop stop-color="#FFACAC" stop-opacity="0.35"/>
<stop offset="1" stop-color="#FFE8E8" stop-opacity="0"/>
</linearGradient>
<linearGradient id="paint2_linear" x1="408.316" y1="201.374" x2="424.919" y2="281.791" gradientUnits="userSpaceOnUse">
<stop stop-color="#FFACAC" stop-opacity="0.35"/>
<stop offset="1" stop-color="#FFE8E8" stop-opacity="0"/>
</linearGradient>
<linearGradient id="paint3_linear" x1="543.931" y1="468.677" x2="486.424" y2="520.209" gradientUnits="userSpaceOnUse">
<stop stop-color="#FFACAC" stop-opacity="0.35"/>
<stop offset="1" stop-color="#FFE8E8" stop-opacity="0"/>
</linearGradient>
<clipPath id="clip0">
<rect width="931.857" height="665.487" fill="white" transform="matrix(-0.615661 -0.788011 -0.788011 0.615661 991.119 727.313)"/>
</clipPath>
</defs>
</svg>
