<svg width="15" height="16" viewBox="0 0 15 16" fill="none" xmlns="http://www.w3.org/2000/svg">
<path d="M14.8139 1.96418C13.1897 0.734457 10.6895 0 8.12555 0C4.95508 0 2.37139 1.10591 1.03823 3.03444C0.412022 3.93962 0.0655895 5.0127 0.00832012 6.22178C-0.0423774 7.29861 0.138819 8.48988 0.546277 9.77119C1.93764 5.6027 5.82445 2.33938 10.3055 2.33938C10.3055 2.33938 6.11267 3.44154 3.4764 6.85681C2.87488 7.63125 2.39203 8.49081 2.04373 9.40724C1.29918 11.1788 0.916151 13.081 0.91712 15.0024H2.7948C2.7948 15.0024 2.5094 13.2109 3.00511 11.151C3.7382 11.2555 4.47746 11.311 5.21796 11.317C6.94449 11.317 8.17155 10.9437 9.08129 10.1426C9.89621 9.42507 10.3459 8.45986 10.8219 7.43931C11.5486 5.87941 12.3719 4.11221 14.7632 2.74741C14.8306 2.70897 14.8875 2.65439 14.9287 2.58859C14.9698 2.52279 14.994 2.44781 14.999 2.37037C15.004 2.29293 14.9898 2.21546 14.9574 2.1449C14.9251 2.07434 14.8758 2.01289 14.8139 1.96606V1.96418Z" fill="#FF9536"/>
</svg>
