<svg width="27" height="16" viewBox="0 0 27 16" fill="none" xmlns="http://www.w3.org/2000/svg">
<path d="M25.9076 1.96418C23.0671 0.734457 18.6947 0 14.2106 0C8.66583 0 4.14726 1.10591 1.81574 3.03444C0.720576 3.93962 0.114708 5.01269 0.0145509 6.22178C-0.0741128 7.29861 0.242778 8.48988 0.955371 9.77119C3.3887 5.6027 10.1862 2.33938 18.0231 2.33938C18.0231 2.33938 10.6903 3.44154 6.0798 6.85681C5.0278 7.63125 4.18337 8.49081 3.57423 9.40724C2.2721 11.1788 1.60224 13.081 1.60393 15.0024H4.88777C4.88777 15.0024 4.38862 13.2109 5.25556 11.151C6.53765 11.2555 7.83053 11.311 9.12556 11.317C12.1451 11.317 14.291 10.9437 15.8821 10.1426C17.3072 9.42507 18.0937 8.45986 18.9262 7.43931C20.197 5.87941 21.637 4.11221 25.819 2.74741C25.9369 2.70897 26.0364 2.65439 26.1084 2.58859C26.1804 2.52279 26.2226 2.44781 26.2314 2.37037C26.2402 2.29293 26.2152 2.21546 26.1587 2.1449C26.1022 2.07434 26.0159 2.01289 25.9076 1.96606V1.96418Z" fill="#FF9536"/>
</svg>
